<?xml version="1.0" encoding="utf-8"?>
<!-- Generator: Adobe Illustrator 15.1.0, SVG Export Plug-In . SVG Version: 6.00 Build 0)  -->
<svg version="1.2" baseProfile="tiny" xmlns="http://www.w3.org/2000/svg" xmlns:xlink="http://www.w3.org/1999/xlink" x="0px"
	 y="0px" width="74.055px" height="64.373px" viewBox="0 0 74.055 64.373" xml:space="preserve">
<g id="Ebene_1" display="none">
	<image display="inline" width="1280" height="720" xlink:href="../file/image_8.jpg"  transform="matrix(1 0 0 1 0 33)">
	</image>
</g>
<g id="Ebene_2">
	<polygon fill="#FAD5C9" stroke="#FFFFFB" stroke-miterlimit="10" points="217.731,-770.5 207.808,-739.281 325.495,-753.922 
		367.094,-770.5 	"/>
	<polygon fill="#FAD5C9" stroke="#FFFFFB" stroke-miterlimit="10" points="132.292,-770.5 79.577,-726.991 -9.854,-770.5 	"/>
	<path fill="#FAD5C9" stroke="#FFFFFB" stroke-miterlimit="10" d="M1084.511-626.744"/>
	<linearGradient id="SVGID_1_" gradientUnits="userSpaceOnUse" x1="0" y1="32.1865" x2="74.0547" y2="32.1865">
		<stop  offset="0" style="stop-color:#FFFFFF"/>
		<stop  offset="0.8" style="stop-color:#FFFFFF;stop-opacity:0"/>
	</linearGradient>
	<polygon fill="url(#SVGID_1_)" points="18.514,64.373 0,32.187 18.514,0 55.541,0 74.055,32.187 55.541,64.373 	"/>
	<g>
		<g>
			<polygon fill="#C4C48A" points="3.357,31.937 4.638,29.695 10.138,34.938 6.69,37.767 			"/>
			<path fill="#FFFFFB" d="M4.696,30.097l5.064,4.828l-2.702,2.217l-0.298,0.244l-3.116-5.449L4.696,30.097 M4.579,29.294
				l-1.51,2.643l3.551,6.211l0.756-0.619l3.139-2.576L4.579,29.294L4.579,29.294z"/>
		</g>
		<g>
			<polygon fill="#C4C48A" points="7.854,37.459 10.502,35.286 16.72,41.212 			"/>
			<path fill="#FFFFFB" d="M10.49,35.619l5.066,4.829L8.333,37.39L10.49,35.619 M10.515,34.952l-3.139,2.576l10.508,4.448
				L10.515,34.952L10.515,34.952z"/>
		</g>
		<g>
			<polygon fill="#C4C48A" points="18.657,41.958 59.412,26.957 49.49,51.686 			"/>
			<path fill="#FFFFFB" d="M58.971,27.386l-9.626,23.992L19.43,41.94L58.971,27.386 M59.854,26.528h0.005H59.854z M59.854,26.528
				l-41.97,15.448l31.752,10.018L59.854,26.528L59.854,26.528z"/>
		</g>
		<g>
			<polygon fill="#C4C48A" points="19.793,60.687 17.464,56.612 18.119,42.313 49.439,52.194 52.266,60.687 			"/>
			<path fill="#FFFFFB" d="M18.354,42.649l30.888,9.745l2.677,8.042h-31.98l-2.221-3.886L18.354,42.649 M17.884,41.977
				l-0.673,14.696l2.438,4.264h32.964l-2.977-8.942L17.884,41.977L17.884,41.977z"/>
		</g>
		<g>
			<polygon fill="#C4C48A" points="49.902,52.002 60.044,26.725 65.062,24.877 69.098,31.937 52.744,60.541 			"/>
			<path fill="#FFFFFB" d="M64.95,25.185l3.86,6.752L52.805,59.931l-2.637-7.921l10.067-25.089L64.95,25.185 M65.174,24.569
				l-5.32,1.959L49.636,51.994l2.977,8.942h0.193l16.58-29L65.174,24.569L65.174,24.569z"/>
		</g>
		<g>
			<polygon fill="#C4C48A" points="6.942,38.207 7.417,37.817 17.626,42.139 17,55.801 			"/>
			<path fill="#FFFFFB" d="M7.459,38.106l9.909,4.195L16.79,54.93L7.264,38.266L7.459,38.106 M7.376,37.528L6.62,38.147
				l10.591,18.525l0.673-14.696L7.376,37.528L7.376,37.528z"/>
		</g>
		<g>
			<polygon fill="#C4C48A" points="26.079,19.689 27.442,13.014 36.99,12.891 27.337,20.829 			"/>
			<path fill="#FFFFFB" d="M36.281,13.15l-8.936,7.349l-0.993-0.899l1.294-6.338L36.281,13.15 M37.698,12.632h0.005H37.698z
				 M37.698,12.632l-10.461,0.135l-1.432,7.012l1.523,1.381L37.698,12.632L37.698,12.632z"/>
		</g>
		<g>
			<polygon fill="#C4C48A" points="10.457,19.519 19.247,4.143 26.967,12.839 25.602,19.528 			"/>
			<path fill="#FFFFFB" d="M19.291,4.569l7.407,8.343l-1.3,6.366l-14.51-0.009L19.291,4.569 M19.202,3.716l-9.176,16.052
				l15.779,0.01l1.432-7.012L19.202,3.716L19.202,3.716z"/>
		</g>
		<g>
			<polygon fill="#C4C48A" points="4.894,29.248 10.171,20.019 25.708,20.028 26.932,21.149 10.527,34.619 			"/>
			<path fill="#FFFFFB" d="M10.316,20.269l15.295,0.01l0.939,0.86L10.54,34.285l-5.332-5.083L10.316,20.269 M10.026,19.769
				l-5.447,9.525l5.936,5.658l16.799-13.793l-1.508-1.381L10.026,19.769L10.026,19.769z"/>
		</g>
		<g>
			<polygon fill="#C4C48A" points="19.508,3.685 19.793,3.187 48.809,3.187 37.607,12.383 27.348,12.515 			"/>
			<path fill="#FFFFFB" d="M48.111,3.437l-10.594,8.698l-10.057,0.129l-7.645-8.611l0.082-0.142l0.042-0.074h0.297H48.111
				 M49.508,2.937h0.005H49.508z M49.508,2.937H20.235h-0.587l-0.187,0.326l-0.26,0.454l8.035,9.05l10.461-0.135L49.508,2.937
				L49.508,2.937z"/>
		</g>
		<g>
			<polygon fill="#C4C48A" points="27.712,21.168 37.789,12.881 58.055,12.622 62.431,20.277 62.033,20.587 50.102,23.471 
				34.52,27.316 			"/>
			<path fill="#FFFFFB" d="M57.911,12.874l4.196,7.339l-0.185,0.144l-11.882,2.872l-15.451,3.813l-6.495-5.865l9.786-8.047
				L57.911,12.874 M58.199,12.37l-20.501,0.262l-10.369,8.527l7.122,6.432l15.709-3.877l11.984-2.896l0.611-0.477L58.199,12.37
				L58.199,12.37z"/>
		</g>
		<g>
			<polygon fill="#C4C48A" points="10.892,34.966 27.306,21.489 34.074,27.587 17.892,41.639 			"/>
			<path fill="#FFFFFB" d="M27.298,21.818l6.398,5.766L17.899,41.301l-6.631-6.321L27.298,21.818 M27.313,21.159L10.515,34.952
				l7.369,7.024l16.567-14.386L27.313,21.159L27.313,21.159z"/>
		</g>
		<g>
			<polygon fill="#C4C48A" points="34.569,27.819 50.22,23.957 61.732,21.174 59.663,26.332 19.078,41.271 			"/>
			<path fill="#FFFFFB" d="M61.319,21.531l-1.847,4.604l-39.2,14.429l14.416-12.517l15.59-3.848L61.319,21.531 M62.145,20.817h0.005
				H62.145z M62.145,20.817L50.16,23.714l-15.709,3.877L17.884,41.977l41.97-15.448L62.145,20.817L62.145,20.817z"/>
		</g>
		<g>
			<polygon fill="#C4C48A" points="62.352,20.973 62.682,20.715 64.81,24.437 60.295,26.1 			"/>
			<path fill="#FFFFFB" d="M62.608,21.09l1.838,3.214l-3.71,1.366l1.822-4.542L62.608,21.09 M62.756,20.341l-0.611,0.477
				l-2.291,5.711l5.32-1.959L62.756,20.341L62.756,20.341z"/>
		</g>
		<g>
			<polygon fill="#C4C48A" points="49.597,3.187 52.661,3.187 57.771,12.125 38.408,12.373 			"/>
			<path fill="#FFFFFB" d="M52.516,3.437l4.828,8.444l-18.227,0.233l10.569-8.677H52.516 M52.806,2.937h-3.298l-11.81,9.695
				l20.501-0.262L52.806,2.937L52.806,2.937z"/>
		</g>
	</g>
	<linearGradient id="SVGID_2_" gradientUnits="userSpaceOnUse" x1="0" y1="17.6821" x2="74.0547" y2="17.6821">
		<stop  offset="0" style="stop-color:#FFFFFF"/>
		<stop  offset="0.8" style="stop-color:#FFFFFF;stop-opacity:0"/>
	</linearGradient>
	<polygon fill="url(#SVGID_2_)" points="34.749,35.364 0,32.187 18.514,0 55.541,0 74.055,32.187 60.248,25.692 	"/>
	<image width="48" height="43" xlink:href="2BCF4BC.png"  transform="matrix(1 0 0 1 13 11)">
	</image>
</g>
</svg>
