<?xml version="1.0" encoding="utf-8"?>
<!-- Generator: Adobe Illustrator 15.1.0, SVG Export Plug-In . SVG Version: 6.00 Build 0)  -->
<!DOCTYPE svg PUBLIC "-//W3C//DTD SVG 1.1//EN" "http://www.w3.org/Graphics/SVG/1.1/DTD/svg11.dtd">
<svg version="1.1" id="Ebene_1" xmlns="http://www.w3.org/2000/svg" xmlns:xlink="http://www.w3.org/1999/xlink" x="0px" y="0px"
	 width="170.079px" height="85.039px" viewBox="0 0 170.079 85.039" enable-background="new 0 0 170.079 85.039"
	 xml:space="preserve">
<g>
	<path fill="#EBF4C6" d="M50.408,54.845c-0.018,0.043-0.035,0.099-0.051,0.168c-0.017,0.07-0.031,0.145-0.044,0.223
		c-0.013,0.079-0.023,0.159-0.031,0.24c-0.008,0.08-0.014,0.155-0.018,0.224c-0.166-0.155-0.333-0.29-0.5-0.404
		s-0.333-0.208-0.5-0.282c-0.166-0.073-0.33-0.128-0.492-0.165c-0.162-0.036-0.321-0.055-0.478-0.055
		c-0.273,0-0.503,0.037-0.69,0.109c-0.187,0.073-0.337,0.18-0.453,0.319c-0.115,0.141-0.198,0.315-0.248,0.524
		s-0.075,0.45-0.075,0.723v4.27l1.477,0.063v-4.084c0-0.105,0.01-0.199,0.031-0.282s0.054-0.153,0.101-0.211
		s0.108-0.102,0.183-0.132s0.167-0.045,0.274-0.045c0.18,0,0.381,0.055,0.604,0.165s0.461,0.286,0.715,0.528v3.984l1.477,0.076
		v-5.884L50.408,54.845z"/>
	<path fill="#EBF4C6" d="M58.529,58.021c0-0.287-0.022-0.564-0.067-0.833c-0.045-0.27-0.116-0.521-0.212-0.755
		s-0.22-0.448-0.371-0.641c-0.15-0.193-0.331-0.358-0.541-0.497s-0.451-0.246-0.722-0.323c-0.271-0.076-0.577-0.114-0.917-0.114
		c-0.078,0-0.162,0.002-0.25,0.007c-0.089,0.006-0.176,0.013-0.261,0.023c-0.085,0.01-0.166,0.023-0.242,0.042
		s-0.142,0.039-0.196,0.063v-2.545l-1.477-0.088v8.402l1.274,0.1c0.035-0.093,0.064-0.203,0.088-0.332
		c0.023-0.128,0.042-0.261,0.056-0.398c0.248,0.249,0.519,0.441,0.813,0.577c0.294,0.137,0.611,0.205,0.951,0.205
		c0.314,0,0.6-0.056,0.855-0.165c0.256-0.11,0.474-0.283,0.655-0.519s0.32-0.535,0.417-0.899
		C58.48,58.966,58.529,58.529,58.529,58.021z M57.041,57.908c0,0.278-0.024,0.528-0.072,0.748c-0.048,0.221-0.119,0.407-0.214,0.56
		s-0.213,0.269-0.356,0.349c-0.143,0.079-0.309,0.119-0.498,0.119c-0.111,0-0.219-0.015-0.322-0.044s-0.204-0.068-0.3-0.118
		S55.089,59.414,55,59.349s-0.172-0.136-0.25-0.21v-3.055c0.061-0.028,0.127-0.055,0.201-0.079c0.073-0.023,0.15-0.045,0.23-0.062
		c0.08-0.018,0.162-0.031,0.246-0.041s0.167-0.016,0.249-0.016c0.443,0,0.782,0.166,1.015,0.496S57.041,57.222,57.041,57.908z"/>
	<path fill="#EBF4C6" d="M59.777,63.805l1.441,0.088v-7.372c0-0.104,0.003-0.188,0.009-0.253s0.021-0.118,0.044-0.156
		s0.058-0.064,0.104-0.079c0.046-0.014,0.11-0.021,0.192-0.021c0.047,0,0.106,0.001,0.177,0.003s0.167,0.009,0.289,0.021
		l0.038-1.055c-0.066-0.022-0.146-0.043-0.237-0.061c-0.092-0.019-0.19-0.034-0.294-0.047c-0.104-0.014-0.213-0.023-0.325-0.03
		c-0.112-0.008-0.223-0.011-0.333-0.011c-0.186,0-0.348,0.021-0.486,0.063c-0.139,0.042-0.254,0.109-0.346,0.201
		s-0.16,0.211-0.205,0.356s-0.067,0.322-0.067,0.53V63.805z"/>
	<path fill="#EBF4C6" d="M68.261,57.972c0-0.463-0.062-0.888-0.185-1.277c-0.123-0.389-0.306-0.724-0.548-1.006
		c-0.242-0.281-0.542-0.501-0.898-0.659c-0.356-0.157-0.769-0.236-1.238-0.236c-0.887,0-1.548,0.243-1.985,0.728
		s-0.655,1.224-0.655,2.215c0,0.473,0.066,0.903,0.198,1.291s0.322,0.721,0.57,0.998c0.248,0.278,0.549,0.493,0.902,0.646
		s0.753,0.229,1.198,0.229c0.443,0,0.831-0.058,1.162-0.173c0.331-0.114,0.606-0.292,0.825-0.531s0.382-0.544,0.491-0.912
		S68.261,58.477,68.261,57.972z M66.75,57.896c0,0.316-0.022,0.595-0.067,0.833s-0.116,0.438-0.214,0.597s-0.223,0.279-0.376,0.36
		s-0.338,0.121-0.555,0.121c-0.197,0-0.375-0.041-0.532-0.124s-0.291-0.206-0.4-0.369c-0.109-0.164-0.193-0.367-0.252-0.611
		c-0.059-0.243-0.088-0.524-0.088-0.844c0-0.371,0.026-0.684,0.079-0.938s0.131-0.458,0.234-0.613
		c0.104-0.156,0.231-0.267,0.384-0.334c0.152-0.066,0.328-0.1,0.527-0.1c0.217,0,0.404,0.044,0.563,0.13
		c0.158,0.087,0.289,0.216,0.393,0.387s0.18,0.382,0.23,0.634C66.725,57.276,66.75,57.566,66.75,57.896z"/>
	<path fill="#EBF4C6" d="M73.889,54.833c-0.207,0-0.39,0.016-0.548,0.048c-0.158,0.033-0.294,0.08-0.409,0.142
		s-0.207,0.138-0.278,0.229s-0.124,0.195-0.157,0.312c-0.24-0.272-0.506-0.469-0.797-0.589s-0.617-0.181-0.979-0.181
		c-0.217,0-0.421,0.039-0.612,0.115c-0.191,0.077-0.359,0.189-0.504,0.338s-0.259,0.331-0.343,0.549
		c-0.084,0.217-0.126,0.467-0.126,0.75c0,0.139,0.016,0.271,0.048,0.396s0.092,0.242,0.18,0.352s0.209,0.21,0.365,0.303
		c0.155,0.094,0.355,0.177,0.599,0.25c0.244,0.074,0.539,0.14,0.885,0.195c0.346,0.057,0.754,0.104,1.225,0.14
		c0.006,0.151,0.009,0.295,0.01,0.431c0.001,0.135,0.001,0.277,0.001,0.427c0,0.134-0.012,0.246-0.035,0.338s-0.06,0.166-0.11,0.223
		s-0.113,0.098-0.19,0.123s-0.169,0.038-0.277,0.038c-0.152,0-0.31-0.016-0.473-0.047s-0.326-0.077-0.488-0.137
		s-0.321-0.131-0.478-0.215s-0.305-0.18-0.445-0.287l-0.577,0.919c0.201,0.151,0.406,0.285,0.615,0.401s0.427,0.213,0.655,0.292
		s0.468,0.139,0.722,0.179c0.254,0.041,0.526,0.061,0.817,0.061c0.336,0,0.614-0.044,0.835-0.132s0.396-0.215,0.526-0.382
		c0.13-0.166,0.221-0.37,0.274-0.611c0.053-0.242,0.079-0.516,0.079-0.823v-2.433c0-0.109,0.007-0.197,0.021-0.264
		s0.047-0.12,0.101-0.161c0.054-0.04,0.135-0.073,0.245-0.098c0.109-0.025,0.26-0.051,0.451-0.074l-0.24-1.104
		c-0.109-0.006-0.213-0.01-0.312-0.011S73.975,54.833,73.889,54.833z M71.487,57.249c-0.246-0.039-0.44-0.088-0.582-0.146
		s-0.24-0.127-0.294-0.207c-0.055-0.081-0.082-0.178-0.082-0.291c0-0.117,0.016-0.224,0.048-0.318s0.08-0.176,0.142-0.242
		s0.139-0.118,0.23-0.154c0.091-0.037,0.195-0.055,0.312-0.055s0.232,0.017,0.346,0.05s0.221,0.077,0.322,0.13
		c0.102,0.054,0.195,0.115,0.28,0.184s0.158,0.139,0.218,0.209v0.942C72.046,57.322,71.733,57.288,71.487,57.249z"/>
	<path fill="#EBF4C6" d="M79.23,54.833c-0.014,0.04-0.027,0.089-0.041,0.146s-0.025,0.117-0.035,0.182s-0.018,0.132-0.023,0.201
		c-0.006,0.07-0.009,0.137-0.009,0.201c-0.107-0.108-0.222-0.209-0.344-0.301s-0.252-0.172-0.39-0.239
		c-0.138-0.068-0.283-0.121-0.437-0.159c-0.153-0.039-0.315-0.058-0.485-0.058c-0.396,0-0.731,0.065-1.005,0.197
		c-0.273,0.131-0.495,0.319-0.664,0.564s-0.291,0.545-0.366,0.898s-0.113,0.752-0.113,1.194c0,0.519,0.064,0.978,0.193,1.377
		c0.129,0.398,0.311,0.734,0.546,1.007c0.235,0.273,0.518,0.479,0.848,0.62s0.696,0.21,1.099,0.21c0.213,0,0.406-0.014,0.58-0.04
		c0.174-0.027,0.337-0.075,0.489-0.145v3.115l1.465,0.1v-8.963L79.23,54.833z M79.075,59.596c-0.277,0.125-0.586,0.188-0.926,0.188
		c-0.201,0-0.384-0.036-0.549-0.11c-0.165-0.073-0.306-0.19-0.423-0.352c-0.117-0.16-0.208-0.369-0.272-0.625
		c-0.064-0.257-0.097-0.569-0.097-0.937c0-0.344,0.026-0.63,0.078-0.86s0.126-0.415,0.224-0.555s0.218-0.238,0.36-0.297
		s0.306-0.088,0.489-0.088c0.111,0,0.22,0.014,0.327,0.041s0.208,0.062,0.303,0.104c0.096,0.042,0.185,0.09,0.268,0.144
		s0.156,0.106,0.218,0.159V59.596z"/>
	<path fill="#EBF4C6" d="M82.098,61.904v1.343h1.477v-1.343H82.098z M82.133,54.894v5.845l1.441,0.088v-5.933H82.133z"/>
	<path fill="#EBF4C6" d="M88.552,54.894v4.069c0,0.103-0.009,0.195-0.026,0.278s-0.047,0.153-0.09,0.212
		c-0.041,0.059-0.099,0.104-0.172,0.135s-0.166,0.047-0.276,0.047c-0.094,0-0.194-0.017-0.303-0.05s-0.222-0.082-0.341-0.146
		s-0.24-0.145-0.364-0.238s-0.247-0.201-0.37-0.322v-3.984h-1.465v5.869l1.274,0.088c0.018-0.043,0.034-0.098,0.048-0.164
		c0.016-0.066,0.028-0.14,0.04-0.22s0.022-0.164,0.032-0.253s0.018-0.179,0.023-0.27c0.338,0.319,0.677,0.558,1.018,0.717
		c0.342,0.158,0.67,0.237,0.983,0.237c0.269,0,0.495-0.033,0.681-0.1c0.187-0.066,0.337-0.168,0.453-0.305
		c0.115-0.137,0.199-0.308,0.252-0.515s0.079-0.45,0.079-0.729v-4.356H88.552z"/>
	<path fill="#EBF4C6" d="M97.025,60.341c-0.145,0.019-0.275,0.034-0.393,0.046s-0.219,0.019-0.305,0.019
		c-0.063,0-0.116-0.008-0.159-0.023c-0.045-0.015-0.084-0.041-0.119-0.078c-0.035-0.038-0.068-0.088-0.1-0.15
		s-0.064-0.141-0.1-0.233c0.053-0.064,0.102-0.142,0.145-0.231c0.045-0.09,0.082-0.186,0.113-0.286
		c0.031-0.102,0.056-0.204,0.073-0.31c0.018-0.104,0.026-0.206,0.026-0.303c0-0.342-0.062-0.643-0.185-0.903
		s-0.294-0.479-0.515-0.655c-0.219-0.177-0.482-0.312-0.787-0.402c-0.307-0.091-0.643-0.136-1.01-0.136h-0.299
		c-0.021-0.034-0.041-0.073-0.057-0.117c-0.018-0.043-0.031-0.088-0.041-0.133c-0.012-0.046-0.02-0.091-0.025-0.137
		c-0.006-0.045-0.009-0.086-0.009-0.122c0-0.065,0.005-0.118,0.017-0.161c0.01-0.042,0.027-0.075,0.049-0.1
		c0.023-0.024,0.052-0.041,0.087-0.05c0.035-0.01,0.076-0.014,0.123-0.014h1.213c0.346,0,0.639-0.027,0.879-0.081
		c0.24-0.053,0.436-0.137,0.586-0.251s0.26-0.262,0.328-0.442s0.103-0.398,0.103-0.653c0-0.193-0.034-0.385-0.103-0.574
		c-0.068-0.188-0.167-0.368-0.298-0.537c-0.129-0.17-0.289-0.327-0.479-0.472s-0.406-0.27-0.648-0.374
		c-0.244-0.105-0.513-0.188-0.808-0.247s-0.612-0.09-0.952-0.09c-0.781,0-1.377,0.114-1.785,0.342
		c-0.41,0.227-0.614,0.576-0.614,1.047c0,0.165,0.024,0.318,0.075,0.459c0.049,0.14,0.124,0.274,0.224,0.404
		c0.1,0.129,0.224,0.257,0.374,0.383c0.148,0.127,0.324,0.257,0.525,0.393c-0.049,0.057-0.085,0.125-0.108,0.206
		s-0.035,0.166-0.035,0.255c0,0.082,0.008,0.166,0.023,0.251s0.042,0.176,0.079,0.271s0.088,0.199,0.15,0.311
		c0.064,0.111,0.144,0.234,0.239,0.369c-0.184,0.051-0.352,0.124-0.504,0.22c-0.152,0.097-0.284,0.217-0.394,0.362
		c-0.111,0.146-0.197,0.315-0.258,0.511c-0.063,0.195-0.093,0.414-0.093,0.659c0,0.363,0.063,0.687,0.192,0.97
		c0.127,0.282,0.305,0.521,0.533,0.715c0.227,0.193,0.496,0.342,0.809,0.443c0.311,0.103,0.651,0.153,1.021,0.153
		c0.145,0,0.28-0.009,0.405-0.025c0.127-0.018,0.244-0.041,0.354-0.07s0.211-0.063,0.305-0.103c0.094-0.04,0.18-0.08,0.258-0.123
		c0.066,0.236,0.133,0.432,0.197,0.587c0.066,0.154,0.141,0.276,0.223,0.367c0.084,0.092,0.179,0.155,0.286,0.193
		c0.107,0.037,0.236,0.056,0.387,0.056c0.066,0,0.138-0.003,0.214-0.009c0.076-0.007,0.152-0.016,0.23-0.027
		c0.076-0.013,0.153-0.028,0.229-0.047c0.076-0.02,0.147-0.041,0.214-0.065L97.025,60.341z M95.37,54.213
		c0,0.087-0.014,0.161-0.041,0.225c-0.027,0.064-0.074,0.117-0.139,0.159c-0.066,0.042-0.153,0.073-0.263,0.094
		s-0.246,0.03-0.41,0.03h-1.764c-0.162-0.137-0.276-0.271-0.345-0.4c-0.066-0.131-0.101-0.257-0.101-0.38
		c0-0.118,0.024-0.222,0.075-0.309c0.049-0.086,0.126-0.158,0.229-0.216s0.236-0.101,0.398-0.129s0.355-0.042,0.58-0.042
		c0.295,0,0.554,0.031,0.774,0.093c0.223,0.061,0.407,0.139,0.556,0.232s0.261,0.197,0.335,0.312
		C95.333,53.995,95.37,54.106,95.37,54.213z M94.792,58.766c0,0.155-0.021,0.297-0.062,0.423s-0.104,0.234-0.186,0.324
		c-0.084,0.09-0.188,0.159-0.315,0.209s-0.275,0.074-0.445,0.074c-0.371,0-0.646-0.097-0.825-0.289
		c-0.178-0.193-0.268-0.474-0.268-0.841c0-0.18,0.023-0.334,0.068-0.463c0.047-0.128,0.113-0.233,0.201-0.316
		s0.195-0.144,0.324-0.182c0.127-0.038,0.274-0.058,0.44-0.058c0.156,0,0.3,0.021,0.431,0.065c0.131,0.043,0.243,0.11,0.337,0.201
		s0.167,0.207,0.22,0.347C94.766,58.401,94.792,58.569,94.792,58.766z"/>
	<path fill="#EBF4C6" d="M103.998,59.547c-0.193,0.063-0.384,0.107-0.571,0.134s-0.357,0.039-0.51,0.039
		c-0.254,0-0.473-0.039-0.658-0.118c-0.184-0.078-0.336-0.199-0.457-0.363c-0.119-0.164-0.208-0.371-0.265-0.621
		c-0.057-0.251-0.085-0.549-0.085-0.894c0-0.285,0.025-0.534,0.074-0.749c0.051-0.214,0.129-0.392,0.234-0.534
		c0.107-0.143,0.242-0.25,0.408-0.321c0.164-0.072,0.362-0.107,0.593-0.107c0.236,0,0.467,0.029,0.691,0.088s0.446,0.14,0.665,0.245
		l0.372-1.055c-0.279-0.155-0.586-0.275-0.92-0.358c-0.334-0.084-0.703-0.126-1.107-0.126c-0.402,0-0.757,0.052-1.065,0.154
		c-0.307,0.104-0.565,0.267-0.774,0.491c-0.209,0.224-0.366,0.514-0.474,0.869c-0.105,0.355-0.159,0.786-0.159,1.291
		c0,0.552,0.069,1.033,0.21,1.445c0.139,0.412,0.333,0.754,0.581,1.027c0.248,0.272,0.543,0.477,0.885,0.611
		c0.342,0.136,0.715,0.203,1.119,0.203c0.285,0,0.553-0.018,0.803-0.055c0.25-0.036,0.486-0.104,0.709-0.206L103.998,59.547z"/>
	<path fill="#EBF4C6" d="M110.633,57.972c0-0.463-0.062-0.888-0.185-1.277c-0.123-0.389-0.306-0.724-0.548-1.006
		c-0.242-0.281-0.541-0.501-0.898-0.659c-0.355-0.157-0.769-0.236-1.237-0.236c-0.887,0-1.548,0.243-1.985,0.728
		c-0.436,0.484-0.654,1.224-0.654,2.215c0,0.473,0.066,0.903,0.197,1.291c0.133,0.388,0.322,0.721,0.57,0.998
		c0.248,0.278,0.549,0.493,0.902,0.646s0.753,0.229,1.198,0.229c0.443,0,0.831-0.058,1.161-0.173
		c0.332-0.114,0.606-0.292,0.825-0.531s0.382-0.544,0.491-0.912C110.579,58.914,110.633,58.477,110.633,57.972z M109.122,57.896
		c0,0.316-0.022,0.595-0.067,0.833s-0.116,0.438-0.214,0.597s-0.223,0.279-0.377,0.36c-0.152,0.081-0.338,0.121-0.555,0.121
		c-0.197,0-0.375-0.041-0.531-0.124c-0.158-0.083-0.291-0.206-0.4-0.369c-0.109-0.164-0.193-0.367-0.252-0.611
		c-0.059-0.243-0.088-0.524-0.088-0.844c0-0.371,0.026-0.684,0.079-0.938s0.131-0.458,0.234-0.613
		c0.104-0.156,0.231-0.267,0.384-0.334c0.152-0.066,0.328-0.1,0.527-0.1c0.217,0,0.404,0.044,0.563,0.13
		c0.158,0.087,0.289,0.216,0.393,0.387s0.18,0.382,0.23,0.634C109.096,57.276,109.122,57.566,109.122,57.896z"/>
	<path fill="#EBF4C6" d="M115.3,54.894v4.069c0,0.103-0.009,0.195-0.026,0.278s-0.047,0.153-0.09,0.212
		c-0.041,0.059-0.099,0.104-0.172,0.135s-0.166,0.047-0.276,0.047c-0.094,0-0.194-0.017-0.303-0.05s-0.222-0.082-0.341-0.146
		s-0.24-0.145-0.364-0.238s-0.247-0.201-0.37-0.322v-3.984h-1.465v5.869l1.274,0.088c0.018-0.043,0.034-0.098,0.048-0.164
		c0.016-0.066,0.028-0.14,0.04-0.22s0.022-0.164,0.032-0.253s0.018-0.179,0.023-0.27c0.338,0.319,0.677,0.558,1.018,0.717
		c0.342,0.158,0.67,0.237,0.983,0.237c0.269,0,0.495-0.033,0.681-0.1c0.187-0.066,0.337-0.168,0.453-0.305
		c0.115-0.137,0.199-0.308,0.252-0.515s0.079-0.45,0.079-0.729v-4.356H115.3z"/>
	<path fill="#EBF4C6" d="M120.304,57.078c0.043-0.125,0.071-0.238,0.087-0.338c0.014-0.101,0.021-0.19,0.021-0.271
		c0,0.081,0.009,0.175,0.026,0.28c0.018,0.106,0.045,0.216,0.082,0.329l1.318,3.672h1.345l-2.232-5.856h-1.307l-2.089,5.856h1.523
		L120.304,57.078z"/>
	<path fill="#EBF4C6" d="M128.172,55.21c-0.191-0.086-0.389-0.159-0.596-0.22c-0.205-0.061-0.418-0.106-0.635-0.138
		c-0.219-0.031-0.438-0.047-0.661-0.047c-0.412,0-0.779,0.052-1.102,0.154c-0.322,0.104-0.595,0.267-0.817,0.489
		c-0.223,0.224-0.393,0.51-0.51,0.86s-0.176,0.772-0.176,1.266c0,0.505,0.063,0.961,0.189,1.369c0.125,0.408,0.31,0.756,0.552,1.044
		s0.54,0.51,0.892,0.665c0.354,0.155,0.756,0.233,1.209,0.233c0.385,0,0.709-0.063,0.975-0.188c0.264-0.125,0.479-0.304,0.641-0.537
		c0.164-0.233,0.281-0.517,0.354-0.849s0.108-0.704,0.108-1.116c0-0.083-0.001-0.177-0.005-0.28
		c-0.002-0.104-0.013-0.235-0.03-0.393h-3.445c0-0.263,0.026-0.493,0.079-0.69c0.053-0.198,0.135-0.362,0.246-0.493
		c0.111-0.13,0.253-0.228,0.425-0.294c0.172-0.065,0.378-0.098,0.618-0.098c0.15,0,0.307,0.015,0.467,0.044
		c0.162,0.029,0.322,0.068,0.484,0.119c0.16,0.051,0.319,0.109,0.476,0.178c0.156,0.067,0.305,0.14,0.445,0.216l0.349-1.003
		C128.54,55.394,128.362,55.296,128.172,55.21z M127.289,58.43c0,0.465-0.079,0.807-0.237,1.024s-0.388,0.326-0.688,0.326
		c-0.164,0-0.314-0.028-0.451-0.084c-0.137-0.057-0.257-0.141-0.358-0.253c-0.104-0.111-0.188-0.252-0.254-0.422
		c-0.066-0.169-0.111-0.366-0.135-0.592H127.289z"/>
	<path fill="#EBF4C6" d="M133.168,59.499c-0.09,0.006-0.17,0.012-0.242,0.017c-0.07,0.005-0.143,0.008-0.215,0.008
		c-0.084,0-0.159-0.005-0.226-0.014c-0.066-0.01-0.13-0.028-0.19-0.057s-0.12-0.068-0.179-0.119
		c-0.059-0.052-0.122-0.121-0.188-0.209c-0.068-0.088-0.143-0.195-0.227-0.323c-0.082-0.127-0.178-0.279-0.285-0.457v-3.451h-1.453
		v5.869l1.154,0.1c0.021-0.047,0.041-0.115,0.059-0.207c0.018-0.093,0.033-0.197,0.047-0.315s0.025-0.245,0.037-0.382
		c0.01-0.137,0.019-0.273,0.024-0.411c0.133,0.279,0.253,0.505,0.36,0.678s0.213,0.306,0.318,0.399
		c0.104,0.095,0.211,0.157,0.318,0.189c0.109,0.032,0.229,0.049,0.359,0.049c0.127,0,0.25-0.008,0.369-0.024
		c0.119-0.016,0.224-0.036,0.313-0.061L133.168,59.499z"/>
	<path fill="#EBF4C6" d="M138.172,56.645c0-0.261-0.048-0.504-0.142-0.73c-0.096-0.226-0.239-0.422-0.433-0.588
		c-0.193-0.165-0.438-0.296-0.732-0.391s-0.644-0.143-1.046-0.143c-0.387,0-0.755,0.04-1.106,0.118
		c-0.35,0.079-0.686,0.197-1.006,0.354l0.275,1.118c0.156-0.074,0.319-0.142,0.489-0.201s0.34-0.11,0.51-0.153
		c0.17-0.042,0.335-0.074,0.497-0.097c0.16-0.022,0.311-0.033,0.449-0.033c0.156,0,0.289,0.015,0.4,0.044
		c0.109,0.029,0.2,0.069,0.271,0.119c0.07,0.051,0.122,0.11,0.155,0.178s0.05,0.14,0.05,0.217c0,0.076-0.01,0.147-0.029,0.214
		c-0.02,0.065-0.061,0.127-0.123,0.186s-0.152,0.116-0.269,0.173c-0.115,0.057-0.271,0.114-0.467,0.173
		c-0.275,0.083-0.516,0.166-0.721,0.25s-0.381,0.171-0.525,0.261c-0.146,0.09-0.266,0.184-0.359,0.28s-0.168,0.2-0.221,0.309
		c-0.055,0.109-0.092,0.226-0.111,0.351c-0.021,0.124-0.031,0.257-0.031,0.398c0,0.278,0.053,0.532,0.16,0.762
		c0.105,0.229,0.256,0.426,0.447,0.589c0.193,0.164,0.424,0.29,0.693,0.379s0.567,0.134,0.894,0.134c0.178,0,0.35-0.008,0.518-0.024
		c0.166-0.017,0.33-0.042,0.492-0.077c0.16-0.035,0.319-0.08,0.477-0.135s0.314-0.121,0.471-0.2l-0.36-1.091
		c-0.102,0.053-0.22,0.101-0.353,0.146c-0.135,0.044-0.272,0.082-0.415,0.113s-0.284,0.057-0.423,0.074
		c-0.14,0.019-0.267,0.027-0.38,0.027c-0.15,0-0.277-0.015-0.379-0.044c-0.104-0.029-0.186-0.069-0.25-0.119
		c-0.063-0.051-0.108-0.109-0.136-0.178c-0.027-0.067-0.041-0.141-0.041-0.22c0-0.093,0.012-0.174,0.035-0.242
		s0.073-0.133,0.147-0.192c0.076-0.06,0.184-0.118,0.324-0.177s0.328-0.124,0.563-0.194c0.352-0.111,0.64-0.226,0.864-0.344
		s0.401-0.247,0.531-0.385c0.13-0.139,0.221-0.29,0.27-0.455C138.148,57.033,138.172,56.849,138.172,56.645z"/>
	<path fill="#EBF4C6" d="M143.762,54.833c-0.207,0-0.39,0.016-0.548,0.048c-0.158,0.033-0.295,0.08-0.408,0.142
		c-0.115,0.062-0.208,0.138-0.279,0.229s-0.123,0.195-0.156,0.312c-0.24-0.272-0.506-0.469-0.797-0.589s-0.617-0.181-0.979-0.181
		c-0.217,0-0.421,0.039-0.612,0.115c-0.191,0.077-0.359,0.189-0.504,0.338s-0.259,0.331-0.343,0.549
		c-0.084,0.217-0.126,0.467-0.126,0.75c0,0.139,0.017,0.271,0.048,0.396c0.033,0.125,0.093,0.242,0.181,0.352s0.21,0.21,0.364,0.303
		c0.156,0.094,0.355,0.177,0.6,0.25c0.244,0.074,0.539,0.14,0.885,0.195c0.346,0.057,0.754,0.104,1.225,0.14
		c0.006,0.151,0.009,0.295,0.01,0.431c0.001,0.135,0.002,0.277,0.002,0.427c0,0.134-0.012,0.246-0.035,0.338
		s-0.061,0.166-0.109,0.223c-0.051,0.057-0.114,0.098-0.191,0.123s-0.169,0.038-0.276,0.038c-0.152,0-0.311-0.016-0.474-0.047
		s-0.325-0.077-0.487-0.137s-0.321-0.131-0.478-0.215s-0.305-0.18-0.445-0.287l-0.577,0.919c0.201,0.151,0.406,0.285,0.615,0.401
		s0.427,0.213,0.655,0.292c0.227,0.079,0.468,0.139,0.722,0.179c0.254,0.041,0.526,0.061,0.817,0.061
		c0.336,0,0.614-0.044,0.835-0.132s0.396-0.215,0.526-0.382c0.129-0.166,0.221-0.37,0.273-0.611
		c0.053-0.242,0.079-0.516,0.079-0.823v-2.433c0-0.109,0.007-0.197,0.021-0.264s0.047-0.12,0.102-0.161
		c0.053-0.04,0.135-0.073,0.244-0.098c0.109-0.025,0.26-0.051,0.451-0.074l-0.24-1.104c-0.109-0.006-0.214-0.01-0.313-0.011
		S143.848,54.833,143.762,54.833z M141.36,57.249c-0.246-0.039-0.44-0.088-0.581-0.146c-0.143-0.058-0.24-0.127-0.295-0.207
		c-0.055-0.081-0.082-0.178-0.082-0.291c0-0.117,0.016-0.224,0.049-0.318c0.031-0.095,0.079-0.176,0.142-0.242
		s0.14-0.118,0.229-0.154c0.092-0.037,0.195-0.055,0.313-0.055s0.232,0.017,0.346,0.05s0.221,0.077,0.322,0.13
		c0.102,0.054,0.195,0.115,0.279,0.184c0.086,0.068,0.158,0.139,0.219,0.209v0.942C141.919,57.322,141.606,57.288,141.36,57.249z"/>
	<path fill="#EBF4C6" d="M148.139,54.896c-0.295-0.068-0.63-0.104-1.005-0.104c-0.252,0-0.473,0.028-0.66,0.085
		c-0.189,0.057-0.346,0.146-0.473,0.267c-0.125,0.121-0.221,0.277-0.283,0.467c-0.064,0.19-0.096,0.418-0.096,0.685v3.376
		l-0.721,0.036l0.085,1.018l0.671,0.024l0.17,1.824l1.271,0.112V60.75h1.679l-0.082-1.091h-1.597v-3.29
		c0-0.16,0.031-0.271,0.094-0.337c0.063-0.064,0.171-0.097,0.325-0.097c0.078,0,0.164,0.006,0.259,0.017
		c0.095,0.012,0.192,0.027,0.292,0.049s0.199,0.047,0.299,0.077s0.192,0.065,0.278,0.106l0.252-1.007
		C148.687,55.059,148.434,54.965,148.139,54.896z"/>
	<path fill="#EBF4C6" d="M149.847,61.904v1.343h1.477v-1.343H149.847z M149.882,54.894v5.845l1.441,0.088v-5.933H149.882z"/>
	<path fill="#EBF4C6" d="M158.08,57.972c0-0.463-0.062-0.888-0.185-1.277c-0.123-0.389-0.306-0.724-0.548-1.006
		c-0.242-0.281-0.542-0.501-0.898-0.659c-0.356-0.157-0.769-0.236-1.237-0.236c-0.887,0-1.548,0.243-1.985,0.728
		c-0.436,0.484-0.654,1.224-0.654,2.215c0,0.473,0.066,0.903,0.197,1.291c0.133,0.388,0.322,0.721,0.57,0.998
		c0.248,0.278,0.549,0.493,0.902,0.646s0.753,0.229,1.198,0.229c0.443,0,0.831-0.058,1.161-0.173
		c0.332-0.114,0.606-0.292,0.825-0.531s0.382-0.544,0.491-0.912C158.025,58.914,158.08,58.477,158.08,57.972z M156.568,57.896
		c0,0.316-0.022,0.595-0.067,0.833s-0.116,0.438-0.214,0.597s-0.224,0.279-0.377,0.36s-0.338,0.121-0.555,0.121
		c-0.197,0-0.375-0.041-0.531-0.124c-0.158-0.083-0.291-0.206-0.4-0.369c-0.109-0.164-0.193-0.367-0.252-0.611
		c-0.059-0.243-0.088-0.524-0.088-0.844c0-0.371,0.026-0.684,0.079-0.938s0.131-0.458,0.234-0.613
		c0.104-0.156,0.231-0.267,0.384-0.334c0.152-0.066,0.328-0.1,0.527-0.1c0.217,0,0.404,0.044,0.563,0.13
		c0.158,0.087,0.289,0.216,0.393,0.387s0.18,0.382,0.23,0.634C156.542,57.276,156.568,57.566,156.568,57.896z"/>
	<path fill="#EBF4C6" d="M162.747,54.894v4.069c0,0.103-0.009,0.195-0.026,0.278s-0.047,0.153-0.089,0.212s-0.1,0.104-0.173,0.135
		s-0.165,0.047-0.276,0.047c-0.094,0-0.194-0.017-0.303-0.05s-0.222-0.082-0.341-0.146s-0.24-0.145-0.364-0.238
		s-0.247-0.201-0.37-0.322v-3.984h-1.465v5.869l1.274,0.088c0.018-0.043,0.034-0.098,0.048-0.164c0.016-0.066,0.028-0.14,0.04-0.22
		s0.022-0.164,0.032-0.253s0.018-0.179,0.023-0.27c0.337,0.319,0.677,0.558,1.018,0.717c0.342,0.158,0.669,0.237,0.983,0.237
		c0.269,0,0.495-0.033,0.681-0.1c0.187-0.066,0.337-0.168,0.452-0.305c0.116-0.137,0.2-0.308,0.253-0.515s0.079-0.45,0.079-0.729
		v-4.356H162.747z"/>
	<path fill="#EBF4C6" d="M54.067,39.5c0-0.245-0.043-0.5-0.129-0.765s-0.21-0.535-0.374-0.806c-0.163-0.272-0.362-0.543-0.596-0.814
		s-0.5-0.535-0.797-0.794c0.152-0.24,0.286-0.448,0.401-0.624s0.218-0.325,0.309-0.451c0.091-0.123,0.172-0.225,0.245-0.304
		c0.072-0.079,0.141-0.141,0.205-0.187c0.064-0.044,0.128-0.077,0.192-0.093c0.063-0.018,0.132-0.027,0.207-0.029
		c0.061,0,0.132,0.007,0.215,0.019c0.083,0.014,0.169,0.03,0.258,0.053c0.089,0.02,0.177,0.044,0.265,0.071
		c0.088,0.026,0.166,0.053,0.234,0.082c0.061-0.176,0.118-0.347,0.173-0.515c0.055-0.167,0.109-0.339,0.164-0.515
		c-0.1-0.059-0.219-0.116-0.359-0.17c-0.14-0.057-0.288-0.105-0.444-0.147s-0.315-0.077-0.478-0.101
		c-0.162-0.026-0.315-0.039-0.46-0.039c-0.16,0-0.304,0.012-0.432,0.037c-0.128,0.024-0.25,0.066-0.365,0.127
		s-0.229,0.144-0.34,0.247c-0.111,0.105-0.231,0.236-0.359,0.394c-0.128,0.16-0.268,0.348-0.419,0.568s-0.326,0.478-0.523,0.773
		c-0.119-0.063-0.255-0.118-0.409-0.167c-0.153-0.048-0.313-0.09-0.478-0.124s-0.333-0.061-0.502-0.079
		c-0.17-0.019-0.331-0.027-0.483-0.027c-0.426,0-0.797,0.052-1.113,0.157c-0.316,0.105-0.58,0.253-0.79,0.442
		c-0.21,0.19-0.367,0.417-0.472,0.679c-0.104,0.263-0.157,0.553-0.157,0.87c0,0.127,0.009,0.25,0.026,0.37s0.051,0.238,0.1,0.36
		c0.049,0.119,0.117,0.245,0.204,0.375s0.199,0.271,0.335,0.421c0.137,0.15,0.302,0.315,0.497,0.495s0.423,0.379,0.687,0.597
		c-0.139,0.238-0.253,0.46-0.343,0.665s-0.161,0.398-0.214,0.579s-0.089,0.352-0.11,0.512s-0.031,0.315-0.031,0.465
		c0,0.17,0.02,0.338,0.059,0.506c0.039,0.168,0.098,0.328,0.177,0.48s0.179,0.294,0.299,0.426s0.263,0.245,0.428,0.34
		c0.165,0.097,0.352,0.172,0.561,0.227c0.209,0.054,0.441,0.081,0.697,0.081c0.328,0,0.615-0.042,0.861-0.127
		s0.451-0.202,0.615-0.352s0.287-0.325,0.369-0.527c0.082-0.202,0.123-0.421,0.123-0.658c0-0.137-0.012-0.271-0.037-0.4
		s-0.064-0.259-0.12-0.388c-0.056-0.129-0.128-0.261-0.218-0.396s-0.199-0.276-0.328-0.426s-0.279-0.308-0.45-0.476
		c-0.171-0.168-0.367-0.35-0.587-0.545c0.242-0.432,0.488-0.865,0.738-1.298c0.25-0.433,0.508-0.865,0.773-1.295
		c0.195,0.186,0.367,0.365,0.514,0.536c0.147,0.172,0.271,0.339,0.371,0.503c0.1,0.164,0.175,0.325,0.226,0.483
		c0.051,0.159,0.076,0.317,0.076,0.474c0,0.087-0.014,0.168-0.042,0.243s-0.076,0.147-0.142,0.218
		c-0.066,0.07-0.153,0.141-0.259,0.212s-0.238,0.145-0.394,0.221l0.647,0.93c0.281-0.083,0.518-0.181,0.709-0.294
		s0.346-0.238,0.463-0.374s0.201-0.283,0.252-0.441S54.067,39.67,54.067,39.5z M50.299,36.474c-0.254,0.406-0.498,0.81-0.732,1.21
		c-0.234,0.402-0.467,0.808-0.697,1.22c-0.191-0.174-0.349-0.325-0.472-0.453c-0.123-0.128-0.22-0.246-0.29-0.351
		c-0.07-0.107-0.119-0.208-0.145-0.303c-0.026-0.097-0.04-0.199-0.04-0.308c0-0.18,0.035-0.345,0.104-0.497
		c0.069-0.152,0.166-0.282,0.29-0.393c0.124-0.109,0.271-0.196,0.441-0.256c0.17-0.063,0.355-0.093,0.557-0.093
		c0.078,0,0.163,0.006,0.253,0.021c0.091,0.012,0.181,0.03,0.27,0.05c0.089,0.022,0.174,0.045,0.255,0.072
		S50.243,36.445,50.299,36.474z M50.551,42.33c0,0.115-0.018,0.219-0.053,0.313c-0.035,0.093-0.085,0.172-0.149,0.238
		c-0.064,0.065-0.144,0.117-0.237,0.153s-0.199,0.055-0.316,0.055c-0.125,0-0.235-0.022-0.331-0.065s-0.176-0.104-0.24-0.18
		s-0.113-0.169-0.146-0.277c-0.033-0.108-0.05-0.228-0.05-0.359c0-0.087,0.007-0.182,0.022-0.286
		c0.015-0.104,0.04-0.217,0.076-0.339c0.036-0.123,0.084-0.253,0.144-0.393s0.134-0.288,0.224-0.445
		c0.217,0.202,0.394,0.378,0.53,0.53c0.137,0.151,0.244,0.289,0.322,0.412c0.078,0.123,0.132,0.236,0.161,0.338
		C50.537,42.125,50.551,42.227,50.551,42.33z"/>
	<path fill="#EBF4C6" d="M50.9,17.344c0-0.26-0.047-0.504-0.142-0.73s-0.239-0.422-0.432-0.588s-0.438-0.296-0.732-0.391
		c-0.295-0.095-0.644-0.143-1.046-0.143c-0.387,0-0.755,0.04-1.106,0.118s-0.686,0.197-1.006,0.354l0.275,1.118
		c0.156-0.075,0.319-0.142,0.489-0.202c0.17-0.059,0.34-0.11,0.51-0.152s0.335-0.075,0.497-0.097
		c0.161-0.022,0.311-0.033,0.45-0.033c0.156,0,0.29,0.014,0.4,0.044c0.11,0.028,0.201,0.069,0.271,0.119s0.122,0.109,0.155,0.178
		c0.033,0.066,0.05,0.139,0.05,0.216c0,0.077-0.01,0.147-0.029,0.214c-0.02,0.065-0.061,0.127-0.123,0.186s-0.152,0.116-0.268,0.172
		c-0.116,0.057-0.272,0.114-0.467,0.173c-0.275,0.083-0.516,0.166-0.721,0.25c-0.205,0.083-0.38,0.17-0.526,0.261
		c-0.146,0.089-0.265,0.183-0.359,0.28c-0.094,0.097-0.167,0.2-0.221,0.309c-0.054,0.109-0.091,0.225-0.111,0.35
		c-0.021,0.124-0.031,0.257-0.031,0.398c0,0.279,0.053,0.533,0.16,0.762c0.106,0.23,0.256,0.426,0.448,0.59s0.423,0.29,0.693,0.379
		s0.567,0.133,0.894,0.133c0.178,0,0.35-0.008,0.517-0.024s0.331-0.042,0.492-0.078c0.161-0.035,0.32-0.08,0.478-0.134
		c0.157-0.055,0.314-0.122,0.47-0.2l-0.36-1.091c-0.102,0.053-0.219,0.101-0.353,0.146s-0.272,0.082-0.415,0.114
		c-0.143,0.03-0.284,0.055-0.423,0.074c-0.14,0.018-0.266,0.027-0.379,0.027c-0.15,0-0.277-0.014-0.379-0.044
		c-0.103-0.028-0.186-0.069-0.249-0.12c-0.063-0.05-0.109-0.109-0.136-0.178c-0.027-0.066-0.041-0.14-0.041-0.219
		c0-0.093,0.012-0.174,0.035-0.243c0.023-0.068,0.073-0.132,0.148-0.193c0.075-0.059,0.183-0.118,0.324-0.177
		s0.328-0.123,0.563-0.194c0.352-0.111,0.64-0.225,0.864-0.344c0.225-0.117,0.402-0.247,0.532-0.384
		c0.13-0.14,0.22-0.291,0.27-0.455C50.875,17.732,50.9,17.548,50.9,17.344z"/>
	<path fill="#EBF4C6" d="M56.295,15.91c-0.19-0.087-0.389-0.16-0.595-0.22s-0.418-0.107-0.636-0.137
		c-0.218-0.032-0.438-0.047-0.661-0.047c-0.412,0-0.779,0.051-1.102,0.154s-0.595,0.267-0.817,0.489
		c-0.223,0.225-0.393,0.511-0.51,0.861c-0.117,0.351-0.176,0.772-0.176,1.265c0,0.505,0.063,0.962,0.189,1.37
		c0.126,0.408,0.31,0.756,0.552,1.043c0.242,0.289,0.54,0.51,0.892,0.666s0.755,0.233,1.208,0.233c0.385,0,0.709-0.063,0.974-0.188
		c0.265-0.125,0.479-0.305,0.642-0.537c0.163-0.234,0.281-0.517,0.353-0.849c0.072-0.333,0.108-0.705,0.108-1.117
		c0-0.083-0.001-0.175-0.004-0.281c-0.003-0.103-0.013-0.234-0.031-0.392h-3.445c0-0.263,0.026-0.493,0.079-0.691
		c0.053-0.198,0.135-0.361,0.246-0.493c0.111-0.129,0.253-0.229,0.425-0.293c0.172-0.067,0.378-0.099,0.618-0.099
		c0.15,0,0.306,0.014,0.467,0.044c0.161,0.028,0.322,0.069,0.483,0.119c0.161,0.051,0.32,0.109,0.476,0.178
		c0.156,0.067,0.305,0.14,0.445,0.216l0.349-1.003C56.663,16.093,56.485,15.995,56.295,15.91z M55.412,19.129
		c0,0.466-0.079,0.807-0.237,1.025c-0.158,0.217-0.388,0.326-0.688,0.326c-0.164,0-0.314-0.028-0.451-0.085
		c-0.137-0.056-0.256-0.14-0.359-0.252s-0.187-0.251-0.253-0.421c-0.066-0.169-0.111-0.367-0.135-0.593H55.412z"/>
	<path fill="#EBF4C6" d="M61.494,15.593v4.069c0,0.103-0.009,0.196-0.026,0.279c-0.018,0.083-0.047,0.154-0.089,0.212
		c-0.042,0.059-0.099,0.104-0.172,0.134c-0.073,0.032-0.166,0.047-0.276,0.047c-0.094,0-0.195-0.017-0.303-0.049
		c-0.108-0.035-0.222-0.083-0.341-0.147c-0.119-0.065-0.241-0.144-0.364-0.239c-0.124-0.093-0.247-0.201-0.37-0.322v-3.984h-1.465
		v5.869l1.274,0.088c0.018-0.042,0.034-0.097,0.048-0.164c0.015-0.066,0.028-0.139,0.04-0.22c0.012-0.079,0.022-0.164,0.032-0.252
		s0.018-0.179,0.023-0.27c0.337,0.319,0.677,0.559,1.018,0.716c0.341,0.16,0.669,0.239,0.983,0.239c0.268,0,0.495-0.034,0.681-0.1
		c0.186-0.067,0.336-0.169,0.452-0.304c0.115-0.137,0.199-0.309,0.252-0.515c0.053-0.208,0.079-0.45,0.079-0.729v-4.357H61.494z"/>
	<path fill="#EBF4C6" d="M68.106,15.533c-0.014,0.04-0.027,0.089-0.041,0.145c-0.014,0.057-0.025,0.117-0.035,0.182
		c-0.01,0.064-0.018,0.131-0.023,0.202c-0.006,0.069-0.009,0.137-0.009,0.201c-0.107-0.109-0.222-0.209-0.344-0.302
		c-0.122-0.091-0.252-0.172-0.39-0.239c-0.138-0.068-0.283-0.121-0.437-0.159c-0.153-0.039-0.315-0.058-0.485-0.058
		c-0.396,0-0.731,0.065-1.005,0.197s-0.495,0.319-0.664,0.565c-0.169,0.245-0.291,0.544-0.366,0.898s-0.113,0.751-0.113,1.194
		c0,0.519,0.064,0.979,0.193,1.376c0.129,0.4,0.311,0.735,0.546,1.008c0.235,0.272,0.518,0.479,0.848,0.62
		c0.33,0.139,0.696,0.21,1.099,0.21c0.213,0,0.406-0.014,0.58-0.041c0.174-0.028,0.337-0.076,0.489-0.145v3.115l1.465,0.1v-8.962
		L68.106,15.533z M67.951,20.295c-0.277,0.125-0.586,0.188-0.926,0.188c-0.201,0-0.384-0.036-0.549-0.111
		c-0.165-0.073-0.306-0.19-0.423-0.352c-0.117-0.16-0.208-0.369-0.272-0.625c-0.064-0.256-0.097-0.568-0.097-0.936
		c0-0.343,0.026-0.63,0.078-0.86c0.052-0.23,0.126-0.416,0.224-0.555s0.218-0.238,0.36-0.297s0.306-0.088,0.489-0.088
		c0.111,0,0.22,0.014,0.327,0.041c0.106,0.028,0.208,0.063,0.303,0.105s0.185,0.091,0.268,0.144
		c0.083,0.054,0.156,0.107,0.218,0.159V20.295z"/>
	<path fill="#EBF4C6" d="M70.974,22.604v1.342h1.477v-1.342H70.974z M71.009,15.593v5.845l1.441,0.088v-5.933H71.009z"/>
	<path fill="#EBF4C6" d="M77.428,15.593v4.069c0,0.103-0.009,0.196-0.026,0.279c-0.018,0.083-0.047,0.154-0.089,0.212
		c-0.042,0.059-0.099,0.104-0.172,0.134c-0.073,0.032-0.166,0.047-0.276,0.047c-0.094,0-0.195-0.017-0.303-0.049
		c-0.108-0.035-0.222-0.083-0.341-0.147c-0.119-0.065-0.241-0.144-0.364-0.239c-0.124-0.093-0.247-0.201-0.37-0.322v-3.984h-1.465
		v5.869l1.274,0.088c0.018-0.042,0.034-0.097,0.048-0.164c0.015-0.066,0.028-0.139,0.04-0.22c0.012-0.079,0.022-0.164,0.032-0.252
		s0.018-0.179,0.023-0.27c0.337,0.319,0.677,0.559,1.018,0.716c0.341,0.16,0.669,0.239,0.983,0.239c0.268,0,0.495-0.034,0.681-0.1
		c0.186-0.067,0.336-0.169,0.452-0.304c0.115-0.137,0.199-0.309,0.252-0.515c0.053-0.208,0.079-0.45,0.079-0.729v-4.357H77.428z"/>
	<path fill="#EBF4C6" d="M85.901,21.041c-0.145,0.018-0.275,0.033-0.393,0.045s-0.219,0.018-0.305,0.018
		c-0.063,0-0.116-0.007-0.16-0.023c-0.044-0.014-0.083-0.041-0.119-0.079c-0.035-0.036-0.068-0.087-0.1-0.149s-0.064-0.14-0.1-0.233
		c0.053-0.064,0.101-0.142,0.145-0.231c0.044-0.091,0.082-0.186,0.113-0.287s0.056-0.204,0.073-0.309s0.026-0.206,0.026-0.303
		c0-0.341-0.062-0.643-0.185-0.903c-0.123-0.261-0.294-0.479-0.514-0.657c-0.22-0.176-0.482-0.31-0.788-0.401
		s-0.642-0.136-1.009-0.136h-0.299c-0.021-0.035-0.041-0.073-0.057-0.117c-0.017-0.042-0.03-0.087-0.041-0.133
		c-0.011-0.044-0.019-0.091-0.025-0.136c-0.006-0.046-0.009-0.086-0.009-0.123c0-0.064,0.005-0.118,0.016-0.161
		s0.027-0.076,0.05-0.1c0.022-0.024,0.051-0.04,0.086-0.05c0.035-0.008,0.076-0.013,0.123-0.013h1.213
		c0.346,0,0.639-0.027,0.879-0.08c0.24-0.055,0.436-0.138,0.586-0.252c0.15-0.113,0.26-0.261,0.328-0.442
		c0.068-0.18,0.103-0.398,0.103-0.653c0-0.194-0.034-0.386-0.103-0.573c-0.068-0.19-0.167-0.369-0.297-0.539
		c-0.13-0.169-0.29-0.326-0.479-0.472c-0.189-0.144-0.406-0.269-0.649-0.374s-0.512-0.188-0.807-0.247
		c-0.295-0.061-0.612-0.09-0.952-0.09c-0.781,0-1.376,0.114-1.786,0.34c-0.409,0.229-0.614,0.577-0.614,1.047
		c0,0.166,0.025,0.318,0.075,0.459c0.05,0.14,0.125,0.275,0.224,0.404c0.1,0.129,0.224,0.256,0.374,0.384
		c0.149,0.125,0.325,0.256,0.526,0.392c-0.049,0.057-0.085,0.125-0.108,0.206c-0.023,0.081-0.035,0.166-0.035,0.254
		c0,0.083,0.008,0.167,0.023,0.251c0.016,0.085,0.042,0.175,0.079,0.272c0.037,0.095,0.087,0.199,0.151,0.31
		c0.063,0.111,0.143,0.234,0.239,0.37c-0.184,0.05-0.352,0.124-0.504,0.219c-0.152,0.097-0.284,0.217-0.394,0.362
		s-0.196,0.316-0.258,0.51c-0.062,0.196-0.092,0.415-0.092,0.66c0,0.363,0.064,0.687,0.192,0.969s0.306,0.521,0.533,0.715
		s0.497,0.342,0.809,0.443c0.312,0.103,0.652,0.153,1.021,0.153c0.145,0,0.28-0.008,0.406-0.026c0.126-0.016,0.244-0.04,0.353-0.068
		c0.109-0.03,0.211-0.065,0.305-0.103c0.094-0.041,0.18-0.081,0.258-0.124c0.066,0.236,0.132,0.433,0.198,0.586
		c0.065,0.156,0.14,0.278,0.223,0.369s0.178,0.155,0.286,0.193c0.107,0.037,0.236,0.056,0.387,0.056
		c0.066,0,0.138-0.003,0.214-0.009c0.076-0.006,0.153-0.015,0.23-0.027c0.077-0.012,0.154-0.027,0.23-0.047
		c0.076-0.018,0.147-0.041,0.214-0.064L85.901,21.041z M84.246,14.913c0,0.086-0.014,0.162-0.041,0.225s-0.074,0.116-0.139,0.159
		C84,15.338,83.913,15.37,83.803,15.39s-0.246,0.03-0.41,0.03h-1.764c-0.162-0.136-0.277-0.271-0.344-0.401
		c-0.067-0.129-0.101-0.257-0.101-0.38c0-0.118,0.025-0.221,0.075-0.308c0.05-0.086,0.126-0.159,0.23-0.216
		c0.104-0.058,0.236-0.1,0.398-0.128s0.355-0.042,0.58-0.042c0.295,0,0.553,0.03,0.775,0.093c0.222,0.061,0.407,0.139,0.555,0.232
		c0.148,0.093,0.26,0.198,0.335,0.311C84.208,14.695,84.246,14.805,84.246,14.913z M83.668,19.465c0,0.156-0.021,0.297-0.062,0.422
		c-0.041,0.127-0.103,0.234-0.186,0.325c-0.083,0.089-0.188,0.16-0.315,0.208c-0.127,0.05-0.275,0.075-0.445,0.075
		c-0.371,0-0.646-0.097-0.825-0.289c-0.179-0.194-0.268-0.474-0.268-0.841c0-0.18,0.023-0.334,0.069-0.461
		c0.046-0.129,0.113-0.234,0.201-0.317c0.088-0.083,0.196-0.144,0.324-0.182c0.128-0.038,0.275-0.058,0.441-0.058
		c0.156,0,0.3,0.021,0.431,0.066c0.131,0.042,0.243,0.11,0.337,0.201c0.094,0.091,0.167,0.207,0.22,0.347
		C83.642,19.102,83.668,19.27,83.668,19.465z"/>
	<path fill="#EBF4C6" d="M93.362,15.91c-0.191-0.087-0.389-0.16-0.596-0.22c-0.205-0.061-0.418-0.107-0.635-0.137
		c-0.219-0.032-0.438-0.047-0.661-0.047c-0.412,0-0.779,0.051-1.102,0.154s-0.595,0.267-0.817,0.489
		c-0.223,0.225-0.393,0.511-0.51,0.861c-0.117,0.351-0.176,0.772-0.176,1.265c0,0.505,0.063,0.962,0.189,1.37
		c0.125,0.408,0.31,0.756,0.552,1.043c0.242,0.289,0.54,0.51,0.892,0.666c0.354,0.156,0.756,0.233,1.209,0.233
		c0.385,0,0.709-0.063,0.975-0.188c0.264-0.125,0.479-0.305,0.641-0.537c0.164-0.234,0.281-0.517,0.354-0.849
		c0.072-0.333,0.108-0.705,0.108-1.117c0-0.083-0.001-0.175-0.005-0.281c-0.002-0.103-0.013-0.234-0.03-0.392h-3.445
		c0-0.263,0.026-0.493,0.079-0.691c0.053-0.198,0.135-0.361,0.246-0.493c0.111-0.129,0.253-0.229,0.425-0.293
		c0.172-0.067,0.378-0.099,0.618-0.099c0.15,0,0.307,0.014,0.467,0.044c0.162,0.028,0.322,0.069,0.484,0.119
		c0.16,0.051,0.319,0.109,0.476,0.178c0.156,0.067,0.305,0.14,0.445,0.216l0.349-1.003C93.729,16.093,93.551,15.995,93.362,15.91z
		 M92.478,19.129c0,0.466-0.079,0.807-0.237,1.025c-0.158,0.217-0.388,0.326-0.688,0.326c-0.164,0-0.314-0.028-0.451-0.085
		c-0.137-0.056-0.257-0.14-0.358-0.252c-0.104-0.112-0.188-0.251-0.254-0.421c-0.066-0.169-0.111-0.367-0.135-0.593H92.478z"/>
	<path fill="#EBF4C6" d="M101.815,19.662c0,0.107-0.01,0.203-0.029,0.286c-0.02,0.085-0.053,0.155-0.098,0.216
		c-0.047,0.059-0.107,0.105-0.182,0.136c-0.076,0.032-0.169,0.047-0.28,0.047c-0.182,0-0.385-0.062-0.609-0.187
		c-0.225-0.123-0.458-0.302-0.7-0.534v-4.033h-1.415v4.084c0,0.105-0.009,0.199-0.026,0.282c-0.018,0.083-0.047,0.152-0.09,0.211
		c-0.041,0.057-0.099,0.101-0.171,0.131s-0.164,0.045-0.275,0.045c-0.09,0-0.188-0.017-0.296-0.052
		c-0.107-0.034-0.22-0.084-0.337-0.151c-0.117-0.066-0.237-0.147-0.358-0.242c-0.123-0.095-0.244-0.203-0.365-0.324v-3.984h-1.43
		v5.869l1.248,0.1c0.018-0.046,0.034-0.103,0.05-0.171c0.016-0.067,0.029-0.142,0.041-0.223c0.012-0.081,0.022-0.166,0.03-0.254
		c0.01-0.089,0.017-0.179,0.022-0.27c0.35,0.323,0.688,0.565,1.014,0.727s0.648,0.243,0.967,0.243c0.211,0,0.394-0.021,0.548-0.066
		c0.154-0.042,0.285-0.106,0.395-0.189c0.107-0.083,0.195-0.183,0.26-0.302c0.066-0.117,0.113-0.251,0.143-0.401
		c0.146,0.143,0.299,0.273,0.455,0.391c0.158,0.117,0.316,0.218,0.479,0.301c0.16,0.084,0.322,0.149,0.486,0.196
		c0.162,0.046,0.325,0.07,0.487,0.07c0.279,0,0.513-0.034,0.7-0.102c0.188-0.067,0.338-0.169,0.451-0.304s0.193-0.302,0.242-0.502
		c0.047-0.198,0.071-0.43,0.071-0.695v-4.417h-1.427V19.662z"/>
	<path fill="#EBF4C6" d="M109.157,15.533c-0.207,0-0.39,0.016-0.548,0.048s-0.294,0.079-0.409,0.141
		c-0.113,0.061-0.207,0.138-0.277,0.229c-0.072,0.091-0.124,0.195-0.157,0.312c-0.24-0.272-0.506-0.47-0.797-0.589
		c-0.291-0.121-0.617-0.181-0.979-0.181c-0.217,0-0.421,0.039-0.612,0.115s-0.359,0.189-0.504,0.338
		c-0.145,0.147-0.259,0.331-0.343,0.547c-0.084,0.218-0.126,0.467-0.126,0.75c0,0.139,0.016,0.271,0.049,0.396
		c0.031,0.125,0.092,0.243,0.18,0.352c0.088,0.109,0.209,0.21,0.365,0.303c0.154,0.093,0.354,0.176,0.599,0.25
		c0.244,0.073,0.539,0.138,0.885,0.195s0.754,0.103,1.225,0.139c0.006,0.152,0.009,0.295,0.011,0.431
		c0,0.135,0.001,0.277,0.001,0.427c0,0.133-0.012,0.246-0.035,0.337c-0.023,0.093-0.06,0.167-0.11,0.224
		c-0.049,0.056-0.113,0.098-0.189,0.122c-0.078,0.026-0.17,0.038-0.277,0.038c-0.152,0-0.311-0.016-0.473-0.046
		c-0.164-0.032-0.326-0.077-0.488-0.137c-0.162-0.059-0.321-0.131-0.478-0.214c-0.156-0.084-0.305-0.18-0.445-0.287l-0.577,0.918
		c0.201,0.151,0.406,0.286,0.615,0.401c0.209,0.117,0.428,0.214,0.654,0.293c0.229,0.079,0.469,0.139,0.723,0.179
		c0.254,0.041,0.526,0.061,0.817,0.061c0.336,0,0.614-0.043,0.835-0.132c0.221-0.086,0.396-0.214,0.525-0.381
		c0.131-0.166,0.222-0.37,0.274-0.612c0.053-0.24,0.079-0.515,0.079-0.822v-2.433c0-0.109,0.007-0.197,0.021-0.264
		c0.014-0.067,0.048-0.12,0.101-0.161c0.055-0.041,0.136-0.074,0.245-0.098c0.109-0.026,0.26-0.05,0.451-0.075l-0.24-1.103
		c-0.109-0.006-0.214-0.01-0.312-0.01C109.334,15.533,109.243,15.533,109.157,15.533z M106.754,17.948
		c-0.246-0.038-0.439-0.087-0.582-0.146c-0.141-0.056-0.239-0.126-0.294-0.207c-0.055-0.081-0.082-0.178-0.082-0.291
		c0-0.117,0.017-0.223,0.048-0.318c0.033-0.095,0.08-0.176,0.143-0.242c0.063-0.067,0.139-0.118,0.23-0.155
		c0.09-0.036,0.194-0.054,0.312-0.054s0.232,0.017,0.346,0.049c0.113,0.034,0.221,0.077,0.322,0.131
		c0.102,0.052,0.194,0.114,0.28,0.183c0.084,0.069,0.157,0.139,0.218,0.209v0.942C107.314,18.022,107,17.989,106.754,17.948z"/>
	<path fill="#EBF4C6" d="M110.874,22.604v1.342h1.477v-1.342H110.874z M110.909,15.593v5.845l1.441,0.088v-5.933H110.909z"/>
	<path fill="#EBF4C6" d="M113.909,24.504l1.441,0.088V17.22c0-0.103,0.003-0.187,0.009-0.253c0.006-0.065,0.021-0.117,0.044-0.156
		c0.023-0.038,0.059-0.064,0.104-0.079c0.047-0.014,0.11-0.021,0.192-0.021c0.047,0,0.106,0.001,0.177,0.003
		c0.072,0.002,0.168,0.009,0.289,0.021l0.038-1.054c-0.066-0.022-0.146-0.042-0.237-0.061c-0.092-0.019-0.189-0.034-0.295-0.048
		c-0.104-0.012-0.213-0.022-0.324-0.03c-0.113-0.006-0.224-0.01-0.333-0.01c-0.186,0-0.348,0.021-0.486,0.063
		s-0.254,0.11-0.346,0.201c-0.092,0.093-0.16,0.211-0.205,0.356s-0.067,0.322-0.067,0.53V24.504z"/>
</g>
<polyline fill="none" stroke="#EBF4C6" stroke-width="1.017" stroke-miterlimit="10" points="5.676,54.655 5.676,46.081 
	36.009,46.081 36.009,54.655 "/>
<polyline fill="none" stroke="#EBF4C6" stroke-width="1.017" stroke-linejoin="round" stroke-miterlimit="10" points="
	10.222,60.738 21.079,72.992 31.974,60.738 21.079,72.992 21.079,51.403 "/>
<rect x="5.676" y="8.853" fill="none" stroke="#EBF4C6" stroke-width="1.017" stroke-linejoin="round" stroke-miterlimit="10" width="30.333" height="21.203"/>
<polyline fill="none" stroke="#EBF4C6" stroke-width="1.017" stroke-linejoin="round" stroke-miterlimit="10" points="5.676,30.055 
	20.842,18.419 36.009,30.055 "/>
</svg>
