<?xml version="1.0" encoding="utf-8"?>
<!-- Generator: Adobe Illustrator 15.1.0, SVG Export Plug-In . SVG Version: 6.00 Build 0)  -->
<!DOCTYPE svg PUBLIC "-//W3C//DTD SVG 1.1//EN" "http://www.w3.org/Graphics/SVG/1.1/DTD/svg11.dtd">
<svg version="1.1" id="Ebene_1" xmlns="http://www.w3.org/2000/svg" xmlns:xlink="http://www.w3.org/1999/xlink" x="0px" y="0px"
	 width="577.39px" height="577.39px" viewBox="0 0 577.39 577.39" enable-background="new 0 0 577.39 577.39" xml:space="preserve">
<g>
	<path fill="none" stroke="#E9EEC5" stroke-width="3" stroke-linecap="round" stroke-linejoin="round" stroke-miterlimit="10" d="
		M177.513,224.87c1.441,0,44.111,4.09,44.111,4.09"/>
	<path fill="none" stroke="#E9EEC5" stroke-width="3" stroke-linecap="round" stroke-linejoin="round" stroke-miterlimit="10" d="
		M185.204,138.334c11.539,3.366,20.672,10.242,28.846,11.685c8.173,1.442,19.23,2.885,19.23,2.885"/>
	<path fill="none" stroke="#E9EEC5" stroke-width="3" stroke-linecap="round" stroke-linejoin="round" stroke-miterlimit="10" d="
		M237.215,248.629c0,0,11.993-13.192,18.47-18.71s9.523-5.277,14.561-1.439c0,0,12.545,7.676,3.43,19.91
		c-2.187,2.934-3.918,5.219-5.359,7.028c-4.566,5.733-6.221,6.682-10.231,8.323c-5.277,2.158-11.034,6.716-15.832,5.517
		c-4.798-1.2-13.192-4.078-14.872-10.794c-1.68-6.717-9.115-41.018-9.115-57.329s3.839-35.261,12.234-44.616
		c8.395-9.355,21.828-16.791,29.744-21.588c7.914-4.798,17.27-4.078,29.743-3.119c12.474,0.96,25.667,3.599,35.261,7.676
		c9.595,4.078,13.913,7.916,16.312,20.629s2.398,12.474,3.599,16.312c1.199,3.838-3.119,13.433-2.639,18.47
		c0.479,5.037,6.236,10.314,5.756,17.751c-0.479,7.437-5.757,7.196-5.996,11.514c-0.24,4.317,1.679,16.552-3.838,19.669
		c0,0-20.629,10.555-35.262,13.193l-36.594,0.498"/>
	<path fill="none" stroke="#E9EEC5" stroke-width="3" stroke-linecap="round" stroke-linejoin="round" stroke-miterlimit="10" d="
		M237.935,149.323c-3.598,9.594-5.037,14.391-2.639,17.03c2.399,2.638,6.236,5.276,6.236,5.276"/>
	<path fill="none" stroke="#E9EEC5" stroke-width="3" stroke-linecap="round" stroke-linejoin="round" stroke-miterlimit="10" d="
		M305.818,160.597c0,0-27.825-2.639-40.538-3.598c-6.237,0.239-11.274,3.357-14.873,6.236c-3.598,2.879-11.754,10.793-13.912,15.592
		c-2.158,4.797-0.719,11.514,8.636,16.79"/>
	<path fill="none" stroke="#E9EEC5" stroke-width="3" stroke-linecap="round" stroke-linejoin="round" stroke-miterlimit="10" d="
		M304.618,186.263c0,0-30.703-4.797-37.898-1.68c-7.197,3.119-22.309,8.636-28.066,18.95c-1.438,4.078,2.641,13.193,14.393,12.714
		c4.798-2.879,12.234-9.355,21.108-9.596c8.876-0.239,31.903,3.598,31.903,3.598"/>
	<path fill="none" stroke="#E9EEC5" stroke-width="3" stroke-linecap="round" stroke-linejoin="round" stroke-miterlimit="10" d="
		M252.807,232.558c-1.2-3.118-1.679-12.713-0.96-16.311"/>
	<path fill="none" stroke="#E9EEC5" stroke-width="3" stroke-linecap="round" stroke-linejoin="round" stroke-miterlimit="10" d="
		M263.569,249.849c-1.722,0.3-8.014-1.198-10.111-6.066"/>
	<path fill="none" stroke="#E9EEC5" stroke-width="3" stroke-linecap="round" stroke-linejoin="round" stroke-miterlimit="10" d="
		M257.16,93.694l0.027-3.712c0,0,0.574-1.813,9.785-1.813c9.209,0,9.596,1.707,9.596,1.707l-0.008,3.818"/>
	
		<polygon fill="none" stroke="#E9EEC5" stroke-width="3" stroke-linecap="round" stroke-linejoin="round" stroke-miterlimit="10" points="
		216.195,30.845 324.089,30.845 294.139,62.812 244.685,62.812 	"/>
	
		<polygon fill="none" stroke="#E9EEC5" stroke-width="3" stroke-linecap="round" stroke-linejoin="round" stroke-miterlimit="10" points="
		335.507,37.695 379.462,73.659 323.357,81.724 300.787,64.753 	"/>
	
		<polygon fill="none" stroke="#E9EEC5" stroke-width="3" stroke-linecap="round" stroke-linejoin="round" stroke-miterlimit="10" points="
		158.288,71.474 204.207,38.266 236.591,63.96 214.497,80.552 	"/>
	
		<polygon fill="none" stroke="#E9EEC5" stroke-width="3" stroke-linecap="round" stroke-linejoin="round" stroke-miterlimit="10" points="
		159.654,89.275 209.127,119.557 236.128,105.714 214.428,89.399 	"/>
	
		<polygon fill="none" stroke="#E9EEC5" stroke-width="3" stroke-linecap="round" stroke-linejoin="round" stroke-miterlimit="10" points="
		377.566,89.275 328.093,119.557 301.226,105.714 322.926,89.399 	"/>
	<path fill="none" stroke="#E9EEC5" stroke-width="3" stroke-linecap="round" stroke-linejoin="round" stroke-miterlimit="10" d="
		M278.807,240.845c4.875-0.202,22.524,0.266,27.419,2.938c5.267,2.875-3.311,7.588-33.668,6.104"/>
	<path fill="none" stroke="#E9EEC5" stroke-width="3" stroke-linecap="round" stroke-linejoin="round" stroke-miterlimit="10" d="
		M237.935,149.323c-0.111-38.72,4.089-55.629,31.388-55.629s29.056,39.008,29.056,39.008"/>
</g>
<rect x="31.494" y="206.84" fill="none" width="519.693" height="324.318"/>
<text transform="matrix(1 0 0 -1 36.7539 491.252)"><tspan x="0" y="0" fill="#E9EEC5" font-family="'Auto2-Black'" font-size="54" letter-spacing="1">Record key moments </tspan><tspan x="3.291" y="78" fill="#E9EEC5" font-family="'Auto2-Black'" font-size="54" letter-spacing="1">of your conversation </tspan><tspan x="44.52" y="156" fill="#E9EEC5" font-family="'Auto2-Black'" font-size="54" letter-spacing="1">before uploading</tspan></text>
<polyline fill="none" stroke="#E9EEC5" stroke-width="3" stroke-linecap="round" stroke-linejoin="round" stroke-miterlimit="10" points="
	252.807,232.558 240.94,244.603 234.114,166.026 "/>
</svg>
