<?xml version="1.0" encoding="utf-8"?>
<!-- Generator: Adobe Illustrator 15.1.0, SVG Export Plug-In . SVG Version: 6.00 Build 0)  -->
<!DOCTYPE svg PUBLIC "-//W3C//DTD SVG 1.1//EN" "http://www.w3.org/Graphics/SVG/1.1/DTD/svg11.dtd">
<svg version="1.1" id="Ebene_1" xmlns="http://www.w3.org/2000/svg" xmlns:xlink="http://www.w3.org/1999/xlink" x="0px" y="0px"
	 width="577.39px" height="577.39px" viewBox="0 0 577.39 577.39" enable-background="new 0 0 577.39 577.39" xml:space="preserve">
<g>
	<path fill="none" stroke="#E9EEC5" stroke-width="3" stroke-linecap="round" stroke-linejoin="round" stroke-miterlimit="10" d="
		M177.513,224.87c1.441,0,44.111,4.09,44.111,4.09"/>
	<path fill="none" stroke="#E9EEC5" stroke-width="3" stroke-linecap="round" stroke-linejoin="round" stroke-miterlimit="10" d="
		M185.204,138.334c11.539,3.366,20.672,10.242,28.846,11.685c8.173,1.442,19.23,2.885,19.23,2.885"/>
	<path fill="none" stroke="#E9EEC5" stroke-width="3" stroke-linecap="round" stroke-linejoin="round" stroke-miterlimit="10" d="
		M237.215,248.629c0,0,11.993-13.192,18.47-18.71s9.523-5.277,14.561-1.439c0,0,12.545,7.676,3.43,19.91
		c-2.187,2.934-3.918,5.219-5.359,7.028c-4.566,5.733-6.221,6.682-10.231,8.323c-5.277,2.158-11.034,6.716-15.832,5.517
		c-4.798-1.2-13.192-4.078-14.872-10.794c-1.68-6.717-9.115-41.018-9.115-57.329s3.839-35.261,12.234-44.616
		c8.395-9.355,21.828-16.791,29.744-21.588c7.914-4.798,17.27-4.078,29.743-3.119c12.474,0.96,25.667,3.599,35.261,7.676
		c9.595,4.078,13.913,7.916,16.312,20.629s2.398,12.474,3.599,16.312c1.199,3.838-3.119,13.433-2.639,18.47
		c0.479,5.037,6.236,10.314,5.756,17.751c-0.479,7.437-5.757,7.196-5.996,11.514c-0.24,4.317,1.679,16.552-3.838,19.669
		c0,0-20.629,10.555-35.262,13.193l-36.594,0.498"/>
	<path fill="none" stroke="#E9EEC5" stroke-width="3" stroke-linecap="round" stroke-linejoin="round" stroke-miterlimit="10" d="
		M237.935,149.323c-3.598,9.594-5.037,14.391-2.639,17.03c2.399,2.638,6.236,5.276,6.236,5.276"/>
	<path fill="none" stroke="#E9EEC5" stroke-width="3" stroke-linecap="round" stroke-linejoin="round" stroke-miterlimit="10" d="
		M305.818,160.597c0,0-27.825-2.639-40.538-3.598c-6.237,0.239-11.274,3.357-14.873,6.236c-3.598,2.879-11.754,10.793-13.912,15.592
		c-2.158,4.797-0.719,11.514,8.636,16.79"/>
	<path fill="none" stroke="#E9EEC5" stroke-width="3" stroke-linecap="round" stroke-linejoin="round" stroke-miterlimit="10" d="
		M304.618,186.263c0,0-30.703-4.797-37.898-1.68c-7.197,3.119-22.309,8.636-28.066,18.95c-1.438,4.078,2.641,13.193,14.393,12.714
		c4.798-2.879,12.234-9.355,21.108-9.596c8.876-0.239,31.903,3.598,31.903,3.598"/>
	<path fill="none" stroke="#E9EEC5" stroke-width="3" stroke-linecap="round" stroke-linejoin="round" stroke-miterlimit="10" d="
		M252.807,232.558c-1.2-3.118-1.679-12.713-0.96-16.311"/>
	<path fill="none" stroke="#E9EEC5" stroke-width="3" stroke-linecap="round" stroke-linejoin="round" stroke-miterlimit="10" d="
		M263.569,249.849c-1.722,0.3-8.014-1.198-10.111-6.066"/>
	<path fill="none" stroke="#E9EEC5" stroke-width="3" stroke-linecap="round" stroke-linejoin="round" stroke-miterlimit="10" d="
		M257.16,93.694l0.027-3.712c0,0,0.574-1.813,9.785-1.813c9.209,0,9.596,1.707,9.596,1.707l-0.008,3.818"/>
	
		<polygon fill="none" stroke="#E9EEC5" stroke-width="3" stroke-linecap="round" stroke-linejoin="round" stroke-miterlimit="10" points="
		216.195,30.845 324.089,30.845 294.139,62.812 244.685,62.812 	"/>
	
		<polygon fill="none" stroke="#E9EEC5" stroke-width="3" stroke-linecap="round" stroke-linejoin="round" stroke-miterlimit="10" points="
		335.507,37.695 379.462,73.659 323.357,81.724 300.787,64.753 	"/>
	
		<polygon fill="none" stroke="#E9EEC5" stroke-width="3" stroke-linecap="round" stroke-linejoin="round" stroke-miterlimit="10" points="
		158.288,71.474 204.207,38.266 236.591,63.96 214.497,80.552 	"/>
	
		<polygon fill="none" stroke="#E9EEC5" stroke-width="3" stroke-linecap="round" stroke-linejoin="round" stroke-miterlimit="10" points="
		159.654,89.275 209.127,119.557 236.128,105.714 214.428,89.399 	"/>
	
		<polygon fill="none" stroke="#E9EEC5" stroke-width="3" stroke-linecap="round" stroke-linejoin="round" stroke-miterlimit="10" points="
		377.566,89.275 328.093,119.557 301.226,105.714 322.926,89.399 	"/>
	<path fill="none" stroke="#E9EEC5" stroke-width="3" stroke-linecap="round" stroke-linejoin="round" stroke-miterlimit="10" d="
		M278.807,240.845c4.875-0.202,22.524,0.266,27.419,2.938c5.267,2.875-3.311,7.588-33.668,6.104"/>
	<path fill="none" stroke="#E9EEC5" stroke-width="3" stroke-linecap="round" stroke-linejoin="round" stroke-miterlimit="10" d="
		M237.935,149.323c-0.111-38.72,4.089-55.629,31.388-55.629s29.056,39.008,29.056,39.008"/>
</g>
<g>
	<path fill="#E9EEC5" d="M69.265,491.252l-8.319,15.979c1.89,1.863,3.298,3.672,4.226,5.426c0.927,1.753,1.391,3.549,1.391,5.385
		c0,1.943-0.272,3.615-0.817,5.017s-1.38,2.554-2.505,3.454s-2.553,1.566-4.285,1.998c-1.731,0.43-3.784,0.646-6.157,0.646H39.615
		v-37.903h9.4v13.553h3.612l6.104-13.553H69.265z M57.367,516.11c-0.084-0.497-0.216-0.995-0.396-1.497
		c-0.181-0.5-0.409-1.015-0.686-1.542c-0.277-0.527-0.613-1.09-1.009-1.688h-6.262v10.64h3.019c1.107,0,2.015-0.1,2.723-0.297
		c0.707-0.198,1.263-0.484,1.667-0.857s0.683-0.832,0.837-1.377c0.153-0.545,0.23-1.16,0.23-1.846
		C57.492,517.119,57.45,516.606,57.367,516.11z"/>
	<path fill="#E9EEC5" d="M96.586,493.625l-1.833,5.617c-0.598-0.246-1.23-0.481-1.898-0.706c-0.668-0.224-1.351-0.424-2.05-0.6
		c-0.698-0.176-1.408-0.316-2.129-0.422s-1.433-0.158-2.136-0.158c-1.564,0-2.771,0.345-3.619,1.035
		c-0.848,0.689-1.369,1.765-1.562,3.224h14.423c0.053,0.299,0.099,0.637,0.138,1.015c0.04,0.378,0.073,0.751,0.099,1.12
		s0.046,0.71,0.059,1.022c0.014,0.312,0.02,0.556,0.02,0.731c0,1.96-0.198,3.709-0.593,5.247s-1.015,2.839-1.859,3.902
		s-1.923,1.874-3.237,2.433c-1.314,0.558-2.889,0.837-4.726,0.837c-2.057,0-3.916-0.304-5.577-0.909
		c-1.661-0.607-3.078-1.515-4.252-2.723c-1.173-1.209-2.079-2.721-2.716-4.535c-0.637-1.815-0.956-3.932-0.956-6.348
		c0-2.215,0.264-4.116,0.791-5.702c0.527-1.587,1.32-2.892,2.379-3.916s2.384-1.775,3.975-2.254c1.591-0.479,3.454-0.719,5.59-0.719
		c1.134,0,2.235,0.068,3.302,0.204c1.068,0.137,2.094,0.328,3.079,0.574s1.92,0.54,2.808,0.883S95.822,493.203,96.586,493.625z
		 M88.268,506.756h-6.855c0.079,1.596,0.435,2.774,1.068,3.537c0.633,0.762,1.573,1.144,2.821,1.144c0.976,0,1.714-0.38,2.215-1.138
		s0.751-1.869,0.751-3.332V506.756z"/>
	<path fill="#E9EEC5" d="M121.693,516.684c-0.58,0.246-1.182,0.448-1.806,0.606s-1.27,0.283-1.938,0.376
		c-0.668,0.092-1.351,0.158-2.05,0.197c-0.698,0.04-1.413,0.06-2.142,0.06c-1.863,0-3.586-0.29-5.168-0.87s-2.951-1.47-4.107-2.67
		c-1.156-1.199-2.059-2.713-2.709-4.541s-0.976-3.99-0.976-6.486c0-2.225,0.25-4.129,0.751-5.716s1.252-2.885,2.254-3.896
		s2.254-1.752,3.757-2.222s3.261-0.705,5.273-0.705c1.916,0,3.669,0.178,5.26,0.534c1.591,0.355,3.023,0.828,4.298,1.417
		l-2.162,6.263c-0.896-0.352-1.813-0.629-2.749-0.831c-0.936-0.202-1.909-0.304-2.92-0.304c-0.809,0-1.501,0.137-2.076,0.409
		c-0.576,0.272-1.046,0.67-1.411,1.193c-0.365,0.522-0.63,1.167-0.797,1.931c-0.167,0.766-0.25,1.64-0.25,2.624
		c0,1.239,0.092,2.301,0.277,3.184c0.185,0.884,0.475,1.604,0.87,2.162s0.903,0.967,1.523,1.227
		c0.619,0.259,1.369,0.389,2.248,0.389c0.677,0,1.448-0.058,2.314-0.171c0.865-0.115,1.751-0.309,2.656-0.58L121.693,516.684z"/>
	<path fill="#E9EEC5" d="M151.42,510.679c-0.514,1.63-1.301,2.983-2.359,4.061c-1.06,1.076-2.399,1.876-4.021,2.399
		c-1.621,0.522-3.54,0.784-5.754,0.784c-2.171,0-4.118-0.332-5.84-0.995c-1.723-0.664-3.184-1.604-4.384-2.821
		c-1.199-1.218-2.118-2.683-2.755-4.397c-0.638-1.713-0.956-3.616-0.956-5.708c0-2.215,0.25-4.146,0.751-5.794
		c0.501-1.648,1.274-3.02,2.32-4.113c1.046-1.095,2.371-1.914,3.975-2.459c1.604-0.545,3.504-0.817,5.702-0.817
		c2.294,0,4.318,0.354,6.071,1.062c1.754,0.707,3.226,1.689,4.417,2.946c1.19,1.257,2.089,2.747,2.696,4.47s0.91,3.594,0.91,5.615
		C152.192,507.125,151.935,509.048,151.42,510.679z M142.469,501.232c-0.146-0.949-0.378-1.727-0.699-2.334
		c-0.321-0.605-0.743-1.053-1.266-1.338s-1.162-0.428-1.918-0.428c-0.703,0-1.292,0.127-1.767,0.382s-0.857,0.679-1.147,1.272
		c-0.29,0.593-0.499,1.373-0.626,2.34s-0.191,2.158-0.191,3.572c0,2.32,0.349,4.035,1.048,5.143c0.698,1.107,1.681,1.66,2.946,1.66
		c0.677,0,1.257-0.116,1.74-0.349c0.483-0.233,0.881-0.618,1.193-1.153c0.312-0.537,0.54-1.242,0.686-2.116
		c0.145-0.875,0.217-1.954,0.217-3.237C142.687,503.32,142.614,502.182,142.469,501.232z"/>
	<path fill="#E9EEC5" d="M174.649,517.172c-0.519,0.166-1.092,0.299-1.721,0.395c-0.628,0.098-1.241,0.146-1.839,0.146
		c-0.554,0-1.057-0.056-1.51-0.165s-0.89-0.325-1.312-0.646c-0.422-0.321-0.839-0.771-1.252-1.352s-0.857-1.336-1.332-2.268
		c-0.035,0.396-0.083,0.813-0.145,1.253s-0.13,0.865-0.205,1.278s-0.154,0.791-0.237,1.134s-0.173,0.615-0.27,0.817l-7.291-0.435
		v-26.078h9.123v15.662c0.475,0.545,0.877,0.989,1.206,1.332c0.33,0.343,0.65,0.611,0.963,0.805
		c0.312,0.193,0.641,0.326,0.988,0.401s0.771,0.112,1.272,0.112c0.378,0,0.769-0.024,1.173-0.072c0.404-0.049,0.879-0.1,1.424-0.152
		L174.649,517.172z"/>
	<path fill="#E9EEC5" d="M203.118,491.582v39.577l-9.189-0.54V517.17c-0.729,0.246-1.446,0.416-2.149,0.509
		s-1.463,0.139-2.281,0.139c-1.863,0-3.549-0.327-5.056-0.982s-2.795-1.597-3.862-2.827c-1.068-1.23-1.89-2.729-2.466-4.496
		s-0.863-3.766-0.863-5.998c0-1.635,0.107-3.086,0.323-4.352c0.215-1.266,0.527-2.366,0.936-3.302
		c0.409-0.937,0.91-1.724,1.503-2.36c0.594-0.637,1.264-1.151,2.011-1.542c0.747-0.392,1.566-0.671,2.459-0.837
		c0.892-0.168,1.848-0.251,2.867-0.251c1.318,0,2.542,0.276,3.672,0.831c1.129,0.553,2.208,1.305,3.236,2.254
		c0-0.22,0.013-0.466,0.04-0.738s0.059-0.547,0.099-0.824c0.039-0.276,0.085-0.549,0.138-0.817s0.105-0.503,0.158-0.705
		L203.118,491.582z M193.876,498.542c-0.492-0.298-1.013-0.519-1.562-0.658c-0.55-0.141-1.11-0.211-1.681-0.211
		c-0.554,0-1.079,0.079-1.576,0.237s-0.932,0.472-1.305,0.941c-0.374,0.47-0.67,1.133-0.89,1.988c-0.22,0.856-0.33,1.979-0.33,3.365
		c0,1.388,0.116,2.541,0.35,3.458c0.232,0.917,0.542,1.648,0.929,2.192c0.387,0.545,0.835,0.927,1.345,1.146
		c0.51,0.219,1.042,0.329,1.595,0.329c0.299,0,0.578-0.011,0.837-0.033s0.515-0.055,0.765-0.099
		c0.251-0.044,0.499-0.099,0.745-0.164c0.246-0.066,0.505-0.147,0.778-0.244V498.542z"/>
	<path fill="#E9EEC5" d="M248.309,517.225h-9.229l-7.673-10.363v24.245l-9.07-0.487v-39.367h9.07v11.984l7.027-11.984h10.745
		l-9.677,14.529L248.309,517.225z"/>
	<path fill="#E9EEC5" d="M275.854,493.625l-1.833,5.617c-0.598-0.246-1.23-0.481-1.898-0.706c-0.668-0.224-1.351-0.424-2.05-0.6
		c-0.698-0.176-1.408-0.316-2.129-0.422s-1.433-0.158-2.136-0.158c-1.564,0-2.771,0.345-3.619,1.035
		c-0.848,0.689-1.369,1.765-1.562,3.224h14.423c0.053,0.299,0.099,0.637,0.138,1.015c0.04,0.378,0.073,0.751,0.099,1.12
		s0.046,0.71,0.059,1.022c0.014,0.312,0.02,0.556,0.02,0.731c0,1.96-0.198,3.709-0.593,5.247s-1.015,2.839-1.859,3.902
		s-1.923,1.874-3.237,2.433c-1.314,0.558-2.889,0.837-4.726,0.837c-2.057,0-3.916-0.304-5.577-0.909
		c-1.661-0.607-3.078-1.515-4.252-2.723c-1.173-1.209-2.079-2.721-2.716-4.535c-0.637-1.815-0.956-3.932-0.956-6.348
		c0-2.215,0.264-4.116,0.791-5.702c0.527-1.587,1.32-2.892,2.379-3.916s2.384-1.775,3.975-2.254c1.591-0.479,3.454-0.719,5.59-0.719
		c1.134,0,2.235,0.068,3.302,0.204c1.068,0.137,2.094,0.328,3.079,0.574s1.92,0.54,2.808,0.883S275.089,493.203,275.854,493.625z
		 M267.535,506.756h-6.855c0.079,1.596,0.435,2.774,1.068,3.537c0.633,0.762,1.573,1.144,2.821,1.144
		c0.976,0,1.714-0.38,2.215-1.138s0.751-1.869,0.751-3.332V506.756z"/>
	<path fill="#E9EEC5" d="M287.725,517.225h-9.229l9.018-25.92l-1.028-2.597c-0.158-0.413-0.375-0.788-0.653-1.127
		c-0.276-0.339-0.661-0.642-1.153-0.91c-0.492-0.268-1.114-0.501-1.865-0.698c-0.752-0.198-1.69-0.363-2.815-0.494
		c0.149-0.678,0.268-1.223,0.356-1.635c0.088-0.414,0.165-0.756,0.23-1.029c0.066-0.271,0.123-0.512,0.172-0.718
		c0.048-0.206,0.103-0.438,0.165-0.692s0.134-0.566,0.217-0.936s0.191-0.861,0.323-1.477c1.705,0.078,3.201,0.27,4.489,0.573
		c1.287,0.303,2.408,0.738,3.361,1.305c0.954,0.567,1.76,1.279,2.419,2.136c0.659,0.857,1.213,1.879,1.661,3.065l11.825,31.153
		h-8.094l-4.324-13.342c-0.158-0.51-0.279-1.016-0.363-1.517s-0.125-0.932-0.125-1.292c0,0.36-0.039,0.784-0.119,1.272
		c-0.078,0.487-0.197,0.999-0.355,1.536L287.725,517.225z"/>
	<path fill="#E9EEC5" d="M351.293,491.252h8.912v19.552c0,1.204-0.113,2.257-0.342,3.157s-0.615,1.654-1.16,2.262
		c-0.545,0.605-1.269,1.061-2.17,1.364c-0.9,0.303-2.019,0.454-3.354,0.454c-0.686,0-1.401-0.116-2.149-0.349
		c-0.746-0.233-1.48-0.538-2.201-0.917c-0.721-0.377-1.41-0.807-2.07-1.285c-0.658-0.479-1.252-0.96-1.779-1.443
		c-0.176,0.571-0.416,1.099-0.719,1.582s-0.705,0.905-1.206,1.266s-1.116,0.642-1.846,0.844s-1.617,0.303-2.663,0.303
		c-0.677,0-1.367-0.094-2.07-0.283s-1.408-0.45-2.115-0.784c-0.708-0.334-1.413-0.736-2.116-1.206
		c-0.703-0.471-1.394-0.991-2.069-1.563c-0.035,0.308-0.082,0.629-0.139,0.963c-0.058,0.334-0.117,0.658-0.178,0.975
		c-0.063,0.316-0.131,0.615-0.205,0.896s-0.151,0.523-0.23,0.726l-7.884-0.435v-26.078h8.859v16.902
		c0.378,0.324,0.761,0.619,1.147,0.883s0.769,0.49,1.146,0.679s0.738,0.337,1.081,0.442s0.655,0.158,0.937,0.158
		s0.529-0.031,0.744-0.093s0.396-0.163,0.541-0.304s0.254-0.327,0.33-0.56c0.074-0.233,0.111-0.525,0.111-0.877v-17.231h8.859
		v16.902c0.378,0.324,0.76,0.619,1.146,0.883s0.766,0.49,1.135,0.679s0.723,0.337,1.061,0.442s0.648,0.158,0.93,0.158
		s0.529-0.031,0.744-0.093c0.216-0.062,0.396-0.163,0.541-0.304s0.255-0.327,0.33-0.56c0.074-0.233,0.111-0.525,0.111-0.877V491.252
		z"/>
	<path fill="#E9EEC5" d="M391.555,510.679c-0.514,1.63-1.301,2.983-2.359,4.061c-1.06,1.076-2.4,1.876-4.021,2.399
		c-1.621,0.522-3.539,0.784-5.754,0.784c-2.172,0-4.118-0.332-5.841-0.995c-1.723-0.664-3.185-1.604-4.384-2.821
		c-1.199-1.218-2.118-2.683-2.756-4.397c-0.637-1.713-0.955-3.616-0.955-5.708c0-2.215,0.25-4.146,0.752-5.794
		c0.5-1.648,1.273-3.02,2.32-4.113c1.045-1.095,2.37-1.914,3.975-2.459c1.604-0.545,3.504-0.817,5.701-0.817
		c2.295,0,4.318,0.354,6.072,1.062c1.752,0.707,3.225,1.689,4.416,2.946c1.19,1.257,2.09,2.747,2.695,4.47
		c0.607,1.723,0.91,3.594,0.91,5.615C392.326,507.125,392.068,509.048,391.555,510.679z M382.604,501.232
		c-0.145-0.949-0.379-1.727-0.699-2.334c-0.32-0.605-0.742-1.053-1.266-1.338s-1.162-0.428-1.918-0.428
		c-0.703,0-1.292,0.127-1.767,0.382s-0.856,0.679-1.147,1.272c-0.289,0.593-0.498,1.373-0.625,2.34
		c-0.129,0.967-0.191,2.158-0.191,3.572c0,2.32,0.35,4.035,1.047,5.143c0.699,1.107,1.682,1.66,2.947,1.66
		c0.677,0,1.257-0.116,1.74-0.349c0.483-0.233,0.881-0.618,1.193-1.153c0.312-0.537,0.541-1.242,0.686-2.116
		c0.145-0.875,0.217-1.954,0.217-3.237C382.82,503.32,382.748,502.182,382.604,501.232z"/>
	<path fill="#E9EEC5" d="M427.479,491.252h8.912v19.552c0,1.204-0.114,2.257-0.343,3.157s-0.615,1.654-1.16,2.262
		c-0.545,0.605-1.269,1.061-2.169,1.364c-0.9,0.303-2.02,0.454-3.355,0.454c-0.686,0-1.401-0.116-2.148-0.349
		c-0.747-0.233-1.48-0.538-2.201-0.917c-0.721-0.377-1.411-0.807-2.07-1.285s-1.252-0.96-1.779-1.443
		c-0.176,0.571-0.416,1.099-0.719,1.582s-0.705,0.905-1.207,1.266c-0.5,0.36-1.115,0.642-1.846,0.844
		c-0.729,0.202-1.617,0.303-2.662,0.303c-0.678,0-1.367-0.094-2.07-0.283s-1.408-0.45-2.115-0.784
		c-0.709-0.334-1.414-0.736-2.117-1.206c-0.703-0.471-1.393-0.991-2.069-1.563c-0.035,0.308-0.081,0.629-0.138,0.963
		c-0.059,0.334-0.117,0.658-0.179,0.975s-0.13,0.615-0.204,0.896c-0.075,0.281-0.152,0.523-0.23,0.726l-7.885-0.435v-26.078h8.859
		v16.902c0.379,0.324,0.761,0.619,1.147,0.883s0.769,0.49,1.147,0.679c0.377,0.188,0.738,0.337,1.08,0.442
		c0.344,0.105,0.655,0.158,0.937,0.158s0.529-0.031,0.745-0.093c0.215-0.062,0.395-0.163,0.541-0.304
		c0.145-0.141,0.254-0.327,0.328-0.56c0.075-0.233,0.113-0.525,0.113-0.877v-17.231h8.859v16.902
		c0.377,0.324,0.76,0.619,1.146,0.883s0.765,0.49,1.134,0.679s0.723,0.337,1.062,0.442c0.338,0.105,0.648,0.158,0.93,0.158
		s0.529-0.031,0.744-0.093s0.396-0.163,0.541-0.304s0.254-0.327,0.33-0.56c0.074-0.233,0.111-0.525,0.111-0.877V491.252z"/>
	<path fill="#E9EEC5" d="M466.191,493.625l-1.833,5.617c-0.598-0.246-1.23-0.481-1.898-0.706c-0.668-0.224-1.351-0.424-2.05-0.6
		s-1.408-0.316-2.129-0.422s-1.434-0.158-2.137-0.158c-1.564,0-2.771,0.345-3.619,1.035c-0.848,0.689-1.368,1.765-1.562,3.224
		h14.423c0.053,0.299,0.1,0.637,0.139,1.015s0.072,0.751,0.099,1.12s0.046,0.71,0.06,1.022c0.014,0.312,0.02,0.556,0.02,0.731
		c0,1.96-0.197,3.709-0.594,5.247c-0.395,1.538-1.015,2.839-1.858,3.902s-1.923,1.874-3.237,2.433
		c-1.313,0.558-2.889,0.837-4.726,0.837c-2.057,0-3.915-0.304-5.577-0.909c-1.66-0.607-3.078-1.515-4.252-2.723
		c-1.172-1.209-2.078-2.721-2.715-4.535c-0.638-1.815-0.956-3.932-0.956-6.348c0-2.215,0.264-4.116,0.791-5.702
		c0.527-1.587,1.32-2.892,2.38-3.916c1.059-1.024,2.384-1.775,3.975-2.254c1.591-0.479,3.454-0.719,5.59-0.719
		c1.134,0,2.234,0.068,3.303,0.204c1.068,0.137,2.094,0.328,3.078,0.574s1.92,0.54,2.809,0.883
		C464.6,492.821,465.426,493.203,466.191,493.625z M457.872,506.756h-6.855c0.079,1.596,0.435,2.774,1.067,3.537
		c0.633,0.762,1.574,1.144,2.822,1.144c0.975,0,1.713-0.38,2.215-1.138c0.5-0.758,0.751-1.869,0.751-3.332V506.756z"/>
	<path fill="#E9EEC5" d="M495.78,491.252v19.17c0,1.291-0.13,2.416-0.39,3.375c-0.259,0.957-0.67,1.75-1.232,2.379
		s-1.285,1.097-2.168,1.404s-1.945,0.461-3.184,0.461c-0.643,0-1.318-0.096-2.031-0.289c-0.711-0.193-1.424-0.46-2.135-0.798
		c-0.713-0.339-1.416-0.743-2.109-1.213c-0.695-0.471-1.354-0.982-1.979-1.536c-0.053,0.308-0.107,0.629-0.164,0.963
		c-0.058,0.334-0.117,0.658-0.178,0.975c-0.063,0.316-0.128,0.615-0.198,0.896s-0.146,0.523-0.224,0.726l-8.096-0.435v-26.078h9.176
		v16.902c0.767,0.65,1.5,1.173,2.201,1.568c0.699,0.396,1.341,0.594,1.922,0.594c0.3,0,0.549-0.031,0.746-0.093
		c0.199-0.062,0.357-0.163,0.477-0.304s0.205-0.327,0.258-0.56c0.053-0.233,0.079-0.525,0.079-0.877v-17.231H495.78z"/>
	<path fill="#E9EEC5" d="M519.477,492.387l-1.45,5.826c-0.343-0.113-0.731-0.215-1.167-0.303s-0.877-0.162-1.324-0.225
		c-0.449-0.061-0.877-0.105-1.285-0.131c-0.41-0.027-0.754-0.04-1.035-0.04c-0.379,0-0.636,0.048-0.771,0.146
		c-0.137,0.096-0.205,0.281-0.205,0.553v12.644h6.21l0.593,6.368h-6.803v8.424l-8.041-0.699l-0.924-7.725h-2.808l-0.487-6.104
		l3.031-0.264v-12.96c0-1.283,0.166-2.373,0.494-3.27c0.33-0.896,0.816-1.628,1.457-2.194c0.643-0.567,1.441-0.978,2.4-1.233
		c0.957-0.254,2.061-0.382,3.309-0.382c2.013,0,3.753,0.146,5.221,0.435C517.358,491.543,518.554,491.92,519.477,492.387z"/>
	<path fill="#E9EEC5" d="M544.135,502.393c-0.264,0.773-0.707,1.465-1.331,2.076s-1.459,1.162-2.505,1.654s-2.355,0.954-3.929,1.385
		c-0.861,0.246-1.552,0.463-2.069,0.652c-0.52,0.189-0.916,0.376-1.193,0.561s-0.459,0.371-0.547,0.561
		c-0.088,0.188-0.133,0.406-0.133,0.652c0,0.413,0.181,0.742,0.541,0.988s0.918,0.369,1.674,0.369c0.422,0,0.945-0.039,1.569-0.118
		s1.28-0.188,1.972-0.329c0.689-0.141,1.373-0.313,2.049-0.515c0.678-0.202,1.279-0.422,1.807-0.659l2.109,6.314
		c-0.905,0.422-1.784,0.77-2.637,1.042s-1.691,0.487-2.518,0.646s-1.64,0.269-2.439,0.33s-1.6,0.092-2.399,0.092
		c-0.967,0-1.901-0.092-2.802-0.276s-1.74-0.455-2.518-0.811c-0.777-0.356-1.486-0.794-2.123-1.312
		c-0.637-0.52-1.184-1.112-1.641-1.78s-0.811-1.406-1.063-2.215c-0.25-0.809-0.375-1.683-0.375-2.624
		c0-0.65,0.047-1.266,0.139-1.846s0.266-1.131,0.521-1.654s0.615-1.018,1.081-1.482c0.466-0.467,1.07-0.91,1.813-1.332
		s1.646-0.822,2.709-1.199c1.064-0.379,2.325-0.738,3.784-1.082c0.527-0.113,0.949-0.241,1.266-0.382s0.56-0.29,0.731-0.448
		s0.285-0.32,0.344-0.488c0.057-0.166,0.085-0.338,0.085-0.514c0-0.404-0.214-0.729-0.64-0.976s-1.061-0.369-1.904-0.369
		c-0.607,0-1.306,0.046-2.097,0.139c-0.791,0.092-1.61,0.224-2.458,0.396c-0.85,0.171-1.697,0.38-2.545,0.626
		c-0.849,0.246-1.629,0.522-2.34,0.831l-1.464-6.579c1.608-0.633,3.278-1.116,5.01-1.45s3.538-0.501,5.419-0.501
		c1.863,0,3.506,0.218,4.93,0.652c1.424,0.436,2.619,1.046,3.586,1.833c0.967,0.786,1.697,1.729,2.189,2.828
		c0.492,1.098,0.738,2.315,0.738,3.651C544.531,500.731,544.398,501.619,544.135,502.393z"/>
	<path fill="#E9EEC5" d="M67.459,432.679c-0.514,1.63-1.301,2.983-2.359,4.061c-1.06,1.076-2.399,1.876-4.021,2.399
		c-1.621,0.522-3.54,0.784-5.754,0.784c-2.171,0-4.118-0.332-5.84-0.995c-1.723-0.664-3.184-1.604-4.384-2.821
		c-1.199-1.218-2.118-2.683-2.755-4.397c-0.638-1.713-0.956-3.616-0.956-5.708c0-2.215,0.25-4.146,0.751-5.794
		c0.501-1.648,1.274-3.02,2.32-4.113c1.046-1.095,2.371-1.914,3.975-2.459c1.604-0.545,3.504-0.817,5.702-0.817
		c2.294,0,4.318,0.354,6.071,1.062c1.754,0.707,3.226,1.689,4.417,2.946c1.19,1.257,2.089,2.747,2.696,4.47s0.91,3.594,0.91,5.615
		C68.231,429.125,67.974,431.048,67.459,432.679z M58.508,423.232c-0.146-0.949-0.378-1.727-0.699-2.334
		c-0.321-0.605-0.743-1.053-1.266-1.338s-1.162-0.428-1.918-0.428c-0.703,0-1.292,0.127-1.767,0.382s-0.857,0.679-1.147,1.272
		c-0.29,0.593-0.499,1.373-0.626,2.34s-0.191,2.158-0.191,3.572c0,2.32,0.349,4.035,1.048,5.143c0.698,1.107,1.681,1.66,2.946,1.66
		c0.677,0,1.257-0.116,1.74-0.349c0.483-0.233,0.881-0.618,1.193-1.153c0.312-0.537,0.54-1.242,0.686-2.116
		c0.145-0.875,0.217-1.954,0.217-3.237C58.726,425.32,58.653,424.182,58.508,423.232z"/>
	<path fill="#E9EEC5" d="M89.396,452.184c-0.404,0.123-0.879,0.242-1.424,0.355c-0.545,0.115-1.121,0.218-1.727,0.311
		c-0.606,0.092-1.226,0.166-1.859,0.224s-1.248,0.086-1.846,0.086c-1.564,0-2.881-0.174-3.948-0.521
		c-1.068-0.348-1.93-0.879-2.584-1.596c-0.655-0.717-1.125-1.628-1.411-2.735s-0.428-2.426-0.428-3.955v-5.128h-2.544l-0.488-6.157
		l3.032-0.211v-19.604h9.176v19.604h4.759l0.541,6.368h-5.3v5.773c0,0.316,0.02,0.578,0.059,0.785
		c0.04,0.206,0.105,0.371,0.198,0.494c0.092,0.123,0.213,0.211,0.362,0.264s0.338,0.079,0.567,0.079
		c0.958,0,2.184-0.163,3.678-0.487L89.396,452.184z"/>
	<path fill="#E9EEC5" d="M112.188,439.225h-9.229l9.018-25.92l-1.028-2.597c-0.158-0.413-0.375-0.788-0.653-1.127
		c-0.276-0.339-0.661-0.642-1.153-0.91c-0.492-0.268-1.114-0.501-1.865-0.698c-0.752-0.198-1.69-0.363-2.815-0.494
		c0.149-0.678,0.268-1.223,0.356-1.635c0.088-0.414,0.165-0.756,0.23-1.029c0.066-0.271,0.123-0.512,0.172-0.718
		c0.048-0.206,0.103-0.438,0.165-0.692s0.134-0.566,0.217-0.936s0.191-0.861,0.323-1.477c1.705,0.078,3.201,0.27,4.489,0.573
		c1.287,0.303,2.408,0.738,3.361,1.305c0.954,0.567,1.76,1.279,2.419,2.136c0.659,0.857,1.213,1.879,1.661,3.065l11.826,31.153
		h-8.095l-4.324-13.342c-0.158-0.51-0.279-1.016-0.362-1.517c-0.084-0.501-0.125-0.932-0.125-1.292c0,0.36-0.04,0.784-0.119,1.272
		c-0.079,0.487-0.198,0.999-0.356,1.536L112.188,439.225z"/>
	<path fill="#E9EEC5" d="M158.29,432.679c-0.515,1.63-1.301,2.983-2.36,4.061c-1.059,1.076-2.399,1.876-4.021,2.399
		c-1.622,0.522-3.54,0.784-5.755,0.784c-2.171,0-4.118-0.332-5.84-0.995c-1.723-0.664-3.184-1.604-4.383-2.821
		c-1.2-1.218-2.119-2.683-2.756-4.397c-0.637-1.713-0.956-3.616-0.956-5.708c0-2.215,0.25-4.146,0.751-5.794
		c0.501-1.648,1.274-3.02,2.32-4.113c1.046-1.095,2.371-1.914,3.975-2.459s3.505-0.817,5.702-0.817c2.294,0,4.317,0.354,6.071,1.062
		c1.753,0.707,3.225,1.689,4.416,2.946s2.09,2.747,2.696,4.47s0.91,3.594,0.91,5.615
		C159.061,429.125,158.803,431.048,158.29,432.679z M149.337,423.232c-0.145-0.949-0.378-1.727-0.698-2.334
		c-0.321-0.605-0.743-1.053-1.266-1.338c-0.523-0.285-1.163-0.428-1.918-0.428c-0.703,0-1.292,0.127-1.767,0.382
		s-0.857,0.679-1.147,1.272c-0.29,0.593-0.499,1.373-0.626,2.34c-0.128,0.967-0.191,2.158-0.191,3.572
		c0,2.32,0.35,4.035,1.048,5.143c0.699,1.107,1.681,1.66,2.947,1.66c0.677,0,1.257-0.116,1.74-0.349
		c0.483-0.233,0.881-0.618,1.193-1.153c0.312-0.537,0.541-1.242,0.686-2.116c0.146-0.875,0.218-1.954,0.218-3.237
		C149.555,425.32,149.483,424.182,149.337,423.232z"/>
	<path fill="#E9EEC5" d="M164.3,420.332c0-1.301,0.123-2.426,0.369-3.375s0.644-1.733,1.193-2.354
		c0.549-0.619,1.259-1.081,2.129-1.384c0.87-0.304,1.925-0.455,3.164-0.455c0.65,0,1.329,0.093,2.037,0.276
		c0.708,0.186,1.417,0.446,2.129,0.785c0.712,0.338,1.417,0.738,2.116,1.199c0.699,0.462,1.356,0.969,1.971,1.523
		c0.053-0.309,0.107-0.627,0.165-0.956c0.057-0.33,0.117-0.653,0.178-0.97s0.127-0.615,0.198-0.896s0.145-0.527,0.224-0.738
		l8.095,0.475v26.038l-9.176-0.382v-16.691c-0.422-0.334-0.813-0.626-1.173-0.876c-0.36-0.251-0.703-0.458-1.028-0.62
		s-0.635-0.285-0.93-0.369s-0.582-0.125-0.863-0.125c-0.563,0-0.965,0.141-1.206,0.422c-0.242,0.281-0.363,0.77-0.363,1.463v17.179
		l-9.229-0.382V420.332z"/>
	<path fill="#E9EEC5" d="M212.188,439.172c-0.519,0.166-1.092,0.299-1.721,0.395c-0.628,0.098-1.241,0.146-1.839,0.146
		c-0.554,0-1.057-0.056-1.51-0.165s-0.89-0.325-1.312-0.646c-0.422-0.321-0.839-0.771-1.252-1.352s-0.857-1.336-1.332-2.268
		c-0.035,0.396-0.083,0.813-0.145,1.253s-0.13,0.865-0.205,1.278s-0.154,0.791-0.237,1.134s-0.173,0.615-0.27,0.817l-7.291-0.435
		v-26.078h9.123v15.662c0.475,0.545,0.877,0.989,1.206,1.332c0.33,0.343,0.65,0.611,0.963,0.805
		c0.312,0.193,0.641,0.326,0.988,0.401s0.771,0.112,1.272,0.112c0.378,0,0.769-0.024,1.173-0.072c0.404-0.049,0.879-0.1,1.424-0.152
		L212.188,439.172z"/>
	<path fill="#E9EEC5" d="M248.058,438.684c-0.58,0.246-1.182,0.448-1.806,0.606s-1.27,0.283-1.938,0.376
		c-0.668,0.092-1.351,0.158-2.05,0.197c-0.698,0.04-1.413,0.06-2.142,0.06c-1.863,0-3.586-0.29-5.168-0.87s-2.951-1.47-4.107-2.67
		c-1.156-1.199-2.059-2.713-2.709-4.541s-0.976-3.99-0.976-6.486c0-2.225,0.25-4.129,0.751-5.716s1.252-2.885,2.254-3.896
		s2.254-1.752,3.757-2.222s3.261-0.705,5.273-0.705c1.916,0,3.669,0.178,5.26,0.534c1.591,0.355,3.023,0.828,4.298,1.417
		l-2.162,6.263c-0.896-0.352-1.813-0.629-2.749-0.831c-0.936-0.202-1.909-0.304-2.92-0.304c-0.809,0-1.501,0.137-2.076,0.409
		c-0.576,0.272-1.046,0.67-1.411,1.193c-0.365,0.522-0.63,1.167-0.797,1.931c-0.167,0.766-0.25,1.64-0.25,2.624
		c0,1.239,0.092,2.301,0.277,3.184c0.185,0.884,0.475,1.604,0.87,2.162s0.903,0.967,1.523,1.227
		c0.619,0.259,1.369,0.389,2.248,0.389c0.677,0,1.448-0.058,2.314-0.171c0.865-0.115,1.751-0.309,2.656-0.58L248.058,438.684z"/>
	<path fill="#E9EEC5" d="M277.786,432.679c-0.515,1.63-1.301,2.983-2.36,4.061c-1.059,1.076-2.399,1.876-4.021,2.399
		c-1.622,0.522-3.54,0.784-5.755,0.784c-2.171,0-4.118-0.332-5.84-0.995c-1.723-0.664-3.184-1.604-4.383-2.821
		c-1.2-1.218-2.119-2.683-2.756-4.397c-0.637-1.713-0.956-3.616-0.956-5.708c0-2.215,0.25-4.146,0.751-5.794
		c0.501-1.648,1.274-3.02,2.32-4.113c1.046-1.095,2.371-1.914,3.975-2.459s3.505-0.817,5.702-0.817c2.294,0,4.317,0.354,6.071,1.062
		c1.753,0.707,3.225,1.689,4.416,2.946s2.09,2.747,2.696,4.47s0.91,3.594,0.91,5.615
		C278.557,429.125,278.299,431.048,277.786,432.679z M268.833,423.232c-0.145-0.949-0.378-1.727-0.698-2.334
		c-0.321-0.605-0.743-1.053-1.266-1.338c-0.523-0.285-1.163-0.428-1.918-0.428c-0.703,0-1.292,0.127-1.767,0.382
		s-0.857,0.679-1.147,1.272c-0.29,0.593-0.499,1.373-0.626,2.34c-0.128,0.967-0.191,2.158-0.191,3.572
		c0,2.32,0.35,4.035,1.048,5.143c0.699,1.107,1.681,1.66,2.947,1.66c0.677,0,1.257-0.116,1.74-0.349
		c0.483-0.233,0.881-0.618,1.193-1.153c0.312-0.537,0.541-1.242,0.686-2.116c0.146-0.875,0.218-1.954,0.218-3.237
		C269.051,425.32,268.979,424.182,268.833,423.232z"/>
	<path fill="#E9EEC5" d="M308.041,413.252v19.17c0,1.291-0.131,2.416-0.389,3.375c-0.26,0.957-0.671,1.75-1.233,2.379
		s-1.286,1.097-2.169,1.404s-1.944,0.461-3.184,0.461c-0.642,0-1.318-0.096-2.03-0.289s-1.424-0.46-2.136-0.798
		c-0.712-0.339-1.415-0.743-2.109-1.213c-0.694-0.471-1.354-0.982-1.978-1.536c-0.053,0.308-0.108,0.629-0.165,0.963
		s-0.116,0.658-0.178,0.975s-0.127,0.615-0.197,0.896s-0.146,0.523-0.225,0.726l-8.095-0.435v-26.078h9.176v16.902
		c0.767,0.65,1.5,1.173,2.2,1.568s1.342,0.594,1.922,0.594c0.301,0,0.549-0.031,0.747-0.093s0.356-0.163,0.476-0.304
		s0.205-0.327,0.258-0.56c0.053-0.233,0.08-0.525,0.08-0.877v-17.231H308.041z"/>
	<path fill="#E9EEC5" d="M321.098,439.225h-9.559l9.242-25.973h8.306l9.782,25.973h-8.266l-4.43-13.342
		c-0.158-0.51-0.279-1.016-0.363-1.517s-0.125-0.932-0.125-1.292c0,0.36-0.039,0.784-0.119,1.272
		c-0.078,0.487-0.197,0.999-0.355,1.536L321.098,439.225z"/>
	<path fill="#E9EEC5" d="M365.65,415.625l-1.832,5.617c-0.598-0.246-1.23-0.481-1.898-0.706c-0.668-0.224-1.352-0.424-2.051-0.6
		s-1.408-0.316-2.129-0.422s-1.433-0.158-2.136-0.158c-1.564,0-2.771,0.345-3.618,1.035c-0.85,0.689-1.369,1.765-1.563,3.224h14.422
		c0.053,0.299,0.1,0.637,0.139,1.015s0.072,0.751,0.1,1.12c0.025,0.369,0.045,0.71,0.059,1.022c0.014,0.312,0.02,0.556,0.02,0.731
		c0,1.96-0.197,3.709-0.593,5.247s-1.015,2.839-1.858,3.902s-1.924,1.874-3.236,2.433c-1.314,0.558-2.891,0.837-4.727,0.837
		c-2.057,0-3.916-0.304-5.577-0.909c-1.661-0.607-3.079-1.515-4.251-2.723c-1.174-1.209-2.08-2.721-2.717-4.535
		c-0.637-1.815-0.955-3.932-0.955-6.348c0-2.215,0.264-4.116,0.791-5.702c0.527-1.587,1.32-2.892,2.379-3.916
		s2.385-1.775,3.975-2.254c1.592-0.479,3.455-0.719,5.59-0.719c1.135,0,2.234,0.068,3.303,0.204
		c1.068,0.137,2.094,0.328,3.078,0.574s1.921,0.54,2.809,0.883S364.886,415.203,365.65,415.625z M357.332,428.756h-6.855
		c0.078,1.596,0.435,2.774,1.067,3.537c0.633,0.762,1.573,1.144,2.821,1.144c0.976,0,1.714-0.38,2.215-1.138
		s0.752-1.869,0.752-3.332V428.756z"/>
	<path fill="#E9EEC5" d="M388.213,439.172c-0.52,0.166-1.093,0.299-1.721,0.395c-0.629,0.098-1.242,0.146-1.84,0.146
		c-0.553,0-1.057-0.056-1.51-0.165c-0.452-0.109-0.889-0.325-1.311-0.646c-0.422-0.321-0.84-0.771-1.253-1.352
		s-0.856-1.336-1.331-2.268c-0.035,0.396-0.084,0.813-0.146,1.253s-0.13,0.865-0.204,1.278c-0.075,0.413-0.154,0.791-0.238,1.134
		c-0.083,0.343-0.173,0.615-0.27,0.817l-7.291-0.435v-26.078h9.123v15.662c0.475,0.545,0.877,0.989,1.207,1.332
		s0.65,0.611,0.963,0.805c0.311,0.193,0.641,0.326,0.988,0.401c0.347,0.075,0.771,0.112,1.271,0.112c0.379,0,0.77-0.024,1.174-0.072
		c0.404-0.049,0.879-0.1,1.424-0.152L388.213,439.172z"/>
	<path fill="#E9EEC5" d="M411.961,424.393c-0.264,0.773-0.707,1.465-1.331,2.076s-1.459,1.162-2.505,1.654s-2.355,0.954-3.929,1.385
		c-0.861,0.246-1.552,0.463-2.069,0.652c-0.52,0.189-0.916,0.376-1.193,0.561s-0.459,0.371-0.547,0.561
		c-0.088,0.188-0.133,0.406-0.133,0.652c0,0.413,0.181,0.742,0.541,0.988s0.918,0.369,1.674,0.369c0.422,0,0.945-0.039,1.569-0.118
		s1.28-0.188,1.972-0.329c0.689-0.141,1.373-0.313,2.049-0.515c0.678-0.202,1.279-0.422,1.807-0.659l2.109,6.314
		c-0.905,0.422-1.784,0.77-2.637,1.042s-1.691,0.487-2.518,0.646s-1.64,0.269-2.439,0.33s-1.6,0.092-2.399,0.092
		c-0.967,0-1.901-0.092-2.802-0.276s-1.74-0.455-2.518-0.811c-0.777-0.356-1.486-0.794-2.123-1.312
		c-0.637-0.52-1.184-1.112-1.641-1.78s-0.811-1.406-1.063-2.215c-0.25-0.809-0.375-1.683-0.375-2.624
		c0-0.65,0.047-1.266,0.139-1.846s0.266-1.131,0.521-1.654s0.615-1.018,1.081-1.482c0.466-0.467,1.07-0.91,1.813-1.332
		s1.646-0.822,2.709-1.199c1.064-0.379,2.325-0.738,3.784-1.082c0.527-0.113,0.949-0.241,1.266-0.382s0.56-0.29,0.731-0.448
		s0.285-0.32,0.344-0.488c0.057-0.166,0.085-0.338,0.085-0.514c0-0.404-0.214-0.729-0.64-0.976s-1.061-0.369-1.904-0.369
		c-0.607,0-1.306,0.046-2.097,0.139c-0.791,0.092-1.61,0.224-2.458,0.396c-0.85,0.171-1.697,0.38-2.545,0.626
		c-0.849,0.246-1.629,0.522-2.34,0.831l-1.464-6.579c1.608-0.633,3.278-1.116,5.01-1.45s3.538-0.501,5.419-0.501
		c1.863,0,3.506,0.218,4.93,0.652c1.424,0.436,2.619,1.046,3.586,1.833c0.967,0.786,1.697,1.729,2.189,2.828
		c0.492,1.098,0.738,2.315,0.738,3.651C412.357,422.731,412.225,423.619,411.961,424.393z"/>
	<path fill="#E9EEC5" d="M432.303,414.637c0.364-0.378,0.842-0.694,1.43-0.949c0.59-0.255,1.318-0.445,2.189-0.573
		c0.869-0.128,1.924-0.191,3.164-0.191c0.377,0,0.781,0.003,1.213,0.007c0.43,0.004,0.887,0.023,1.371,0.059l1.463,6.526
		c-0.58,0.105-1.055,0.2-1.424,0.283s-0.662,0.169-0.877,0.257s-0.362,0.188-0.441,0.297s-0.119,0.244-0.119,0.402v11.021
		c0,1.283-0.148,2.441-0.447,3.474s-0.794,1.912-1.484,2.637c-0.689,0.726-1.594,1.283-2.715,1.675
		c-1.121,0.391-2.508,0.586-4.16,0.586c-1.441,0-2.799-0.092-4.073-0.276s-2.489-0.46-3.646-0.824s-2.264-0.819-3.322-1.364
		s-2.094-1.182-3.104-1.912l3.401-5.404c0.659,0.447,1.347,0.852,2.063,1.213c0.717,0.359,1.438,0.668,2.162,0.922
		c0.727,0.256,1.453,0.451,2.183,0.587s1.437,0.204,2.122,0.204c0.344,0,0.631-0.035,0.863-0.105
		c0.233-0.07,0.422-0.188,0.568-0.355c0.145-0.167,0.248-0.394,0.309-0.679c0.063-0.286,0.093-0.644,0.093-1.075v-2.597
		c-2.092-0.158-3.909-0.364-5.452-0.62c-1.541-0.254-2.857-0.549-3.947-0.883s-1.979-0.707-2.664-1.121
		c-0.686-0.412-1.221-0.867-1.607-1.364s-0.652-1.028-0.799-1.595c-0.145-0.567-0.217-1.172-0.217-1.813
		c0-1.283,0.199-2.436,0.6-3.455s0.943-1.885,1.629-2.597s1.486-1.259,2.406-1.642c0.918-0.382,1.896-0.573,2.933-0.573
		c0.791,0,1.526,0.056,2.208,0.165s1.32,0.287,1.918,0.533s1.17,0.569,1.715,0.97c0.545,0.399,1.08,0.89,1.607,1.47
		C431.641,415.454,431.938,415.015,432.303,414.637z M431.03,423.944v-3.942c-0.185-0.176-0.401-0.347-0.653-0.514
		c-0.25-0.167-0.524-0.316-0.823-0.448s-0.622-0.237-0.97-0.316c-0.347-0.079-0.718-0.118-1.113-0.118
		c-0.378,0-0.717,0.067-1.016,0.204c-0.299,0.136-0.553,0.325-0.764,0.566s-0.372,0.53-0.482,0.864
		c-0.109,0.334-0.164,0.703-0.164,1.107c0,0.254,0.02,0.482,0.059,0.686c0.041,0.201,0.126,0.387,0.258,0.553
		c0.132,0.168,0.327,0.316,0.586,0.449c0.26,0.131,0.611,0.25,1.055,0.355c0.444,0.105,0.994,0.204,1.648,0.297
		C429.305,423.779,430.099,423.865,431.03,423.944z"/>
	<path fill="#E9EEC5" d="M464.614,414.387l-1.45,5.826c-0.343-0.113-0.732-0.215-1.166-0.303c-0.436-0.088-0.877-0.162-1.326-0.225
		c-0.447-0.061-0.877-0.105-1.285-0.131c-0.408-0.027-0.754-0.04-1.035-0.04c-0.377,0-0.635,0.048-0.771,0.146
		c-0.136,0.096-0.203,0.281-0.203,0.553v12.644h6.209l0.594,6.368h-6.803v8.424l-8.043-0.699l-0.922-7.725h-2.809l-0.488-6.104
		l3.033-0.264v-12.96c0-1.283,0.164-2.373,0.494-3.27s0.814-1.628,1.457-2.194c0.641-0.567,1.441-0.978,2.398-1.233
		c0.959-0.254,2.062-0.382,3.31-0.382c2.013,0,3.753,0.146,5.221,0.435C462.496,413.543,463.691,413.92,464.614,414.387z"/>
	<path fill="#E9EEC5" d="M478.436,413.252v26.302l-9.07-0.435v-25.867H478.436z M478.225,443.443v7.672h-8.754v-7.672H478.225z"/>
	<path fill="#E9EEC5" d="M509.799,432.679c-0.516,1.63-1.302,2.983-2.361,4.061c-1.059,1.076-2.398,1.876-4.02,2.399
		c-1.623,0.522-3.541,0.784-5.756,0.784c-2.17,0-4.117-0.332-5.84-0.995c-1.723-0.664-3.184-1.604-4.383-2.821
		c-1.201-1.218-2.119-2.683-2.756-4.397c-0.638-1.713-0.956-3.616-0.956-5.708c0-2.215,0.251-4.146,0.751-5.794
		c0.502-1.648,1.275-3.02,2.32-4.113c1.047-1.095,2.371-1.914,3.975-2.459c1.604-0.545,3.506-0.817,5.703-0.817
		c2.293,0,4.316,0.354,6.07,1.062s3.226,1.689,4.416,2.946c1.191,1.257,2.09,2.747,2.697,4.47c0.605,1.723,0.909,3.594,0.909,5.615
		C510.569,429.125,510.313,431.048,509.799,432.679z M500.846,423.232c-0.145-0.949-0.377-1.727-0.697-2.334
		c-0.322-0.605-0.744-1.053-1.266-1.338c-0.523-0.285-1.163-0.428-1.919-0.428c-0.703,0-1.292,0.127-1.767,0.382
		s-0.857,0.679-1.146,1.272c-0.291,0.593-0.5,1.373-0.627,2.34s-0.191,2.158-0.191,3.572c0,2.32,0.35,4.035,1.049,5.143
		s1.681,1.66,2.946,1.66c0.677,0,1.257-0.116,1.74-0.349c0.483-0.233,0.881-0.618,1.192-1.153c0.313-0.537,0.541-1.242,0.686-2.116
		c0.146-0.875,0.219-1.954,0.219-3.237C501.064,425.32,500.992,424.182,500.846,423.232z"/>
	<path fill="#E9EEC5" d="M540.053,413.252v19.17c0,1.291-0.129,2.416-0.389,3.375c-0.26,0.957-0.67,1.75-1.232,2.379
		s-1.285,1.097-2.168,1.404c-0.885,0.308-1.945,0.461-3.185,0.461c-0.642,0-1.318-0.096-2.03-0.289s-1.424-0.46-2.136-0.798
		c-0.712-0.339-1.415-0.743-2.109-1.213c-0.694-0.471-1.354-0.982-1.978-1.536c-0.053,0.308-0.107,0.629-0.164,0.963
		c-0.059,0.334-0.117,0.658-0.179,0.975s-0.128,0.615-0.198,0.896s-0.145,0.523-0.224,0.726l-8.095-0.435v-26.078h9.176v16.902
		c0.766,0.65,1.5,1.173,2.2,1.568s1.341,0.594,1.923,0.594c0.299,0,0.548-0.031,0.746-0.093s0.357-0.163,0.477-0.304
		c0.118-0.141,0.204-0.327,0.258-0.56c0.053-0.233,0.078-0.525,0.078-0.877v-17.231H540.053z"/>
	<path fill="#E9EEC5" d="M93.099,375.105l-9.07-0.487v-37.362c0.756-0.404,1.624-0.756,2.604-1.055s1.995-0.547,3.046-0.745
		c1.05-0.197,2.096-0.345,3.138-0.441c1.041-0.097,2.001-0.146,2.88-0.146c2.215,0,4.199,0.291,5.953,0.871
		c1.753,0.58,3.241,1.47,4.462,2.669c1.222,1.2,2.158,2.716,2.808,4.549c0.65,1.832,0.976,3.996,0.976,6.493
		c0,2.258-0.233,4.183-0.699,5.773s-1.112,2.892-1.938,3.902s-1.809,1.749-2.946,2.215c-1.139,0.466-2.375,0.699-3.711,0.699
		c-0.703,0-1.377-0.062-2.024-0.185c-0.646-0.123-1.276-0.31-1.892-0.561c-0.615-0.25-1.217-0.564-1.806-0.942
		s-1.182-0.826-1.78-1.345V375.105z M100.317,345.041c-0.189-0.91-0.472-1.65-0.85-2.222s-0.85-0.984-1.417-1.239
		c-0.566-0.255-1.228-0.383-1.984-0.383c-0.229,0-0.47,0.009-0.725,0.027c-0.255,0.017-0.508,0.043-0.758,0.078
		c-0.251,0.035-0.49,0.075-0.719,0.119s-0.431,0.092-0.606,0.145v11.773c0.598,0.413,1.175,0.742,1.733,0.988
		s1.154,0.369,1.787,0.369c0.58,0,1.105-0.127,1.576-0.382c0.47-0.255,0.872-0.642,1.206-1.16s0.591-1.176,0.771-1.971
		c0.18-0.796,0.27-1.733,0.27-2.815C100.601,347.06,100.506,345.95,100.317,345.041z"/>
	<path fill="#E9EEC5" d="M138.509,337.625l-1.833,5.616c-0.598-0.246-1.23-0.481-1.898-0.705c-0.668-0.225-1.352-0.425-2.05-0.601
		c-0.699-0.176-1.409-0.316-2.129-0.422s-1.433-0.158-2.136-0.158c-1.564,0-2.771,0.346-3.619,1.035
		c-0.849,0.69-1.369,1.765-1.563,3.224h14.423c0.053,0.299,0.099,0.637,0.139,1.015c0.039,0.378,0.072,0.752,0.099,1.121
		s0.046,0.71,0.06,1.021c0.013,0.313,0.02,0.556,0.02,0.732c0,1.959-0.198,3.708-0.593,5.246s-1.015,2.839-1.859,3.902
		s-1.923,1.875-3.236,2.433c-1.314,0.559-2.89,0.837-4.727,0.837c-2.057,0-3.916-0.303-5.577-0.909s-3.079-1.514-4.251-2.723
		c-1.174-1.208-2.079-2.72-2.716-4.535c-0.638-1.814-0.956-3.931-0.956-6.348c0-2.215,0.264-4.115,0.791-5.702
		c0.527-1.586,1.32-2.892,2.38-3.915c1.059-1.024,2.384-1.775,3.975-2.255c1.591-0.479,3.454-0.719,5.59-0.719
		c1.134,0,2.234,0.068,3.303,0.205c1.067,0.136,2.094,0.327,3.078,0.573s1.92,0.54,2.808,0.884
		C136.918,336.82,137.744,337.203,138.509,337.625z M130.19,350.756h-6.855c0.079,1.595,0.435,2.773,1.068,3.536
		s1.573,1.144,2.821,1.144c0.976,0,1.714-0.379,2.215-1.137s0.751-1.869,0.751-3.333V350.756z"/>
	<path fill="#E9EEC5" d="M159.779,374.184c-0.404,0.122-0.879,0.241-1.424,0.355s-1.121,0.218-1.727,0.31
		c-0.606,0.093-1.226,0.167-1.859,0.225c-0.633,0.057-1.248,0.085-1.846,0.085c-1.564,0-2.88-0.173-3.949-0.521
		c-1.067-0.347-1.929-0.879-2.584-1.595c-0.655-0.717-1.125-1.629-1.41-2.736c-0.286-1.107-0.429-2.426-0.429-3.955v-5.128h-2.544
		l-0.488-6.157l3.032-0.211v-19.604h9.176v19.604h4.759l0.541,6.368h-5.3v5.774c0,0.316,0.02,0.578,0.06,0.784
		c0.039,0.207,0.105,0.371,0.197,0.495c0.093,0.122,0.213,0.211,0.363,0.264s0.338,0.078,0.567,0.078
		c0.958,0,2.184-0.162,3.678-0.487L159.779,374.184z"/>
	<path fill="#E9EEC5" d="M188.492,354.678c-0.515,1.631-1.301,2.984-2.36,4.061c-1.059,1.077-2.399,1.877-4.021,2.399
		c-1.622,0.523-3.54,0.784-5.755,0.784c-2.171,0-4.118-0.331-5.84-0.995c-1.723-0.663-3.184-1.604-4.383-2.821
		c-1.2-1.217-2.119-2.683-2.756-4.396s-0.956-3.617-0.956-5.709c0-2.215,0.25-4.146,0.751-5.794c0.501-1.647,1.274-3.019,2.32-4.113
		c1.046-1.094,2.371-1.914,3.975-2.458c1.604-0.545,3.505-0.818,5.702-0.818c2.294,0,4.317,0.354,6.071,1.062
		c1.753,0.708,3.225,1.689,4.416,2.946s2.09,2.747,2.696,4.47s0.91,3.595,0.91,5.616
		C189.263,351.125,189.005,353.048,188.492,354.678z M179.54,345.232c-0.145-0.949-0.378-1.728-0.698-2.334
		c-0.321-0.606-0.743-1.053-1.266-1.338c-0.523-0.286-1.163-0.429-1.918-0.429c-0.703,0-1.292,0.127-1.767,0.382
		s-0.857,0.68-1.147,1.272c-0.29,0.594-0.499,1.373-0.626,2.341c-0.128,0.966-0.191,2.157-0.191,3.572
		c0,2.32,0.35,4.034,1.048,5.142c0.699,1.107,1.681,1.661,2.947,1.661c0.677,0,1.257-0.116,1.74-0.35
		c0.483-0.232,0.881-0.617,1.193-1.153s0.541-1.241,0.686-2.116c0.146-0.874,0.218-1.953,0.218-3.236
		C179.757,347.319,179.685,346.182,179.54,345.232z"/>
	<path fill="#E9EEC5" d="M211.72,361.171c-0.519,0.167-1.092,0.299-1.72,0.396c-0.629,0.097-1.242,0.145-1.839,0.145
		c-0.554,0-1.057-0.055-1.509-0.164c-0.453-0.11-0.89-0.325-1.312-0.646c-0.422-0.32-0.839-0.771-1.252-1.352
		s-0.857-1.336-1.332-2.268c-0.035,0.396-0.083,0.813-0.145,1.253s-0.13,0.865-0.204,1.278c-0.075,0.413-0.154,0.791-0.237,1.135
		c-0.084,0.342-0.174,0.614-0.271,0.816l-7.291-0.435v-26.077h9.123v15.662c0.475,0.545,0.876,0.988,1.207,1.332
		c0.329,0.342,0.65,0.61,0.962,0.804s0.642,0.327,0.989,0.402c0.347,0.074,0.771,0.112,1.272,0.112c0.378,0,0.769-0.024,1.173-0.073
		c0.404-0.048,0.879-0.099,1.424-0.151L211.72,361.171z"/>
	<path fill="#E9EEC5" d="M238.725,337.625l-1.833,5.616c-0.598-0.246-1.23-0.481-1.898-0.705c-0.668-0.225-1.351-0.425-2.05-0.601
		c-0.698-0.176-1.408-0.316-2.129-0.422s-1.433-0.158-2.136-0.158c-1.564,0-2.771,0.346-3.619,1.035
		c-0.848,0.69-1.369,1.765-1.562,3.224h14.423c0.053,0.299,0.099,0.637,0.138,1.015c0.04,0.378,0.073,0.752,0.099,1.121
		s0.046,0.71,0.059,1.021c0.014,0.313,0.02,0.556,0.02,0.732c0,1.959-0.198,3.708-0.593,5.246s-1.015,2.839-1.859,3.902
		s-1.923,1.875-3.237,2.433c-1.314,0.559-2.889,0.837-4.726,0.837c-2.057,0-3.916-0.303-5.577-0.909s-3.078-1.514-4.252-2.723
		c-1.173-1.208-2.079-2.72-2.716-4.535c-0.637-1.814-0.956-3.931-0.956-6.348c0-2.215,0.264-4.115,0.791-5.702
		c0.527-1.586,1.32-2.892,2.379-3.915c1.059-1.024,2.384-1.775,3.975-2.255c1.591-0.479,3.454-0.719,5.59-0.719
		c1.134,0,2.235,0.068,3.302,0.205c1.068,0.136,2.094,0.327,3.079,0.573s1.92,0.54,2.808,0.884
		C237.134,336.82,237.96,337.203,238.725,337.625z M230.406,350.756h-6.855c0.079,1.595,0.435,2.773,1.068,3.536
		s1.573,1.144,2.821,1.144c0.976,0,1.714-0.379,2.215-1.137s0.751-1.869,0.751-3.333V350.756z"/>
	<path fill="#E9EEC5" d="M256.441,342.332c0-1.302,0.123-2.426,0.369-3.375s0.644-1.734,1.193-2.354
		c0.549-0.62,1.259-1.081,2.129-1.385c0.87-0.303,1.925-0.455,3.164-0.455c0.65,0,1.329,0.093,2.037,0.277s1.417,0.446,2.129,0.784
		c0.712,0.339,1.417,0.738,2.116,1.2c0.699,0.461,1.356,0.969,1.971,1.522c0.053-0.308,0.107-0.626,0.165-0.956
		c0.057-0.329,0.117-0.652,0.178-0.969s0.127-0.615,0.198-0.896s0.145-0.527,0.224-0.738l8.095,0.475V361.5l-9.176-0.382v-16.69
		c-0.422-0.334-0.813-0.626-1.173-0.877c-0.36-0.25-0.703-0.457-1.028-0.619c-0.325-0.163-0.635-0.286-0.93-0.369
		c-0.294-0.084-0.582-0.125-0.863-0.125c-0.563,0-0.965,0.14-1.206,0.422c-0.242,0.28-0.363,0.769-0.363,1.463V361.5l-9.229-0.382
		V342.332z"/>
	<path fill="#E9EEC5" d="M312.438,355.094c-0.467,1.635-1.112,2.966-1.938,3.994s-1.809,1.777-2.946,2.248
		c-1.139,0.47-2.375,0.705-3.711,0.705c-1.486,0-2.861-0.272-4.127-0.817s-2.479-1.371-3.639-2.479
		c-0.053,0.308-0.105,0.596-0.158,0.863c-0.053,0.269-0.105,0.525-0.158,0.771s-0.111,0.481-0.178,0.705
		c-0.066,0.225-0.139,0.45-0.218,0.679l-8.095-0.435v-37.415l9.229,0.488v10.902c0.132-0.009,0.343-0.02,0.633-0.033
		c0.29-0.013,0.598-0.026,0.923-0.039c0.325-0.014,0.64-0.022,0.942-0.026c0.303-0.005,0.534-0.007,0.692-0.007
		c1.688,0,3.19,0.172,4.509,0.514c1.318,0.344,2.475,0.824,3.467,1.444c0.994,0.619,1.838,1.357,2.531,2.215
		c0.695,0.856,1.26,1.802,1.695,2.834c0.434,1.033,0.75,2.136,0.949,3.31c0.197,1.173,0.296,2.379,0.296,3.619
		C313.136,351.472,312.902,353.459,312.438,355.094z M303.559,345.041c-0.189-0.91-0.473-1.65-0.852-2.222
		c-0.377-0.571-0.85-0.984-1.416-1.239c-0.568-0.255-1.229-0.383-1.984-0.383c-0.229,0-0.471,0.009-0.726,0.027
		c-0.255,0.017-0.507,0.043-0.759,0.078c-0.25,0.035-0.489,0.075-0.718,0.119s-0.431,0.092-0.606,0.145v11.773
		c0.598,0.413,1.176,0.742,1.734,0.988c0.557,0.246,1.152,0.369,1.785,0.369c0.58,0,1.105-0.127,1.576-0.382
		c0.47-0.255,0.872-0.642,1.206-1.16s0.591-1.176,0.771-1.971c0.181-0.796,0.271-1.733,0.271-2.815
		C303.842,347.06,303.746,345.95,303.559,345.041z"/>
	<path fill="#E9EEC5" d="M330.781,335.635v6.262c-0.695,0-1.246,0.011-1.654,0.033c-0.41,0.021-0.719,0.062-0.93,0.118
		c-0.211,0.058-0.346,0.134-0.402,0.231c-0.058,0.096-0.086,0.219-0.086,0.369v32.457l-9.07-0.487v-33.803
		c0-1.055,0.134-1.956,0.402-2.702c0.268-0.748,0.658-1.356,1.174-1.826c0.514-0.471,1.15-0.815,1.91-1.035
		c0.761-0.22,1.633-0.33,2.617-0.33c0.545,0,1.107,0.019,1.688,0.053c0.58,0.036,1.141,0.084,1.682,0.146s1.043,0.136,1.51,0.224
		C330.086,335.432,330.473,335.529,330.781,335.635z"/>
	<path fill="#E9EEC5" d="M360.521,354.678c-0.514,1.631-1.301,2.984-2.359,4.061c-1.06,1.077-2.4,1.877-4.021,2.399
		c-1.621,0.523-3.539,0.784-5.754,0.784c-2.172,0-4.118-0.331-5.841-0.995c-1.723-0.663-3.185-1.604-4.384-2.821
		c-1.199-1.217-2.118-2.683-2.756-4.396c-0.637-1.714-0.955-3.617-0.955-5.709c0-2.215,0.25-4.146,0.752-5.794
		c0.5-1.647,1.273-3.019,2.32-4.113c1.045-1.094,2.37-1.914,3.975-2.458c1.604-0.545,3.504-0.818,5.701-0.818
		c2.295,0,4.318,0.354,6.072,1.062c1.752,0.708,3.225,1.689,4.416,2.946c1.19,1.257,2.09,2.747,2.695,4.47
		c0.607,1.723,0.91,3.595,0.91,5.616C361.293,351.125,361.035,353.048,360.521,354.678z M351.57,345.232
		c-0.145-0.949-0.379-1.728-0.699-2.334s-0.742-1.053-1.266-1.338c-0.523-0.286-1.162-0.429-1.918-0.429
		c-0.703,0-1.292,0.127-1.767,0.382s-0.856,0.68-1.147,1.272c-0.289,0.594-0.498,1.373-0.625,2.341
		c-0.129,0.966-0.191,2.157-0.191,3.572c0,2.32,0.35,4.034,1.047,5.142c0.699,1.107,1.682,1.661,2.947,1.661
		c0.677,0,1.257-0.116,1.74-0.35c0.483-0.232,0.881-0.617,1.193-1.153c0.312-0.536,0.541-1.241,0.686-2.116
		c0.145-0.874,0.217-1.953,0.217-3.236C351.787,347.319,351.715,346.182,351.57,345.232z"/>
	<path fill="#E9EEC5" d="M381.133,336.637c0.365-0.379,0.842-0.695,1.431-0.949c0.589-0.256,1.318-0.446,2.188-0.574
		c0.87-0.127,1.925-0.191,3.164-0.191c0.378,0,0.782,0.003,1.213,0.007c0.431,0.005,0.888,0.024,1.371,0.06l1.463,6.525
		c-0.58,0.105-1.055,0.2-1.424,0.284c-0.369,0.083-0.661,0.169-0.877,0.257c-0.215,0.088-0.361,0.187-0.441,0.297
		c-0.078,0.109-0.118,0.244-0.118,0.402v11.021c0,1.282-0.149,2.44-0.448,3.474c-0.299,1.032-0.793,1.911-1.482,2.637
		c-0.691,0.725-1.596,1.283-2.717,1.674c-1.121,0.392-2.507,0.587-4.159,0.587c-1.441,0-2.8-0.092-4.073-0.277
		c-1.275-0.184-2.49-0.459-3.646-0.823c-1.155-0.365-2.263-0.82-3.322-1.364c-1.059-0.546-2.094-1.183-3.104-1.912l3.4-5.405
		c0.66,0.448,1.348,0.853,2.064,1.213c0.715,0.36,1.436,0.668,2.162,0.923c0.725,0.255,1.451,0.45,2.182,0.587
		c0.729,0.136,1.437,0.204,2.122,0.204c0.343,0,0.63-0.035,0.864-0.105c0.232-0.07,0.422-0.189,0.566-0.355
		c0.145-0.168,0.248-0.394,0.31-0.68c0.062-0.285,0.093-0.644,0.093-1.074v-2.598c-2.092-0.158-3.91-0.364-5.451-0.619
		c-1.543-0.255-2.859-0.55-3.949-0.883c-1.09-0.335-1.978-0.708-2.663-1.121s-1.222-0.868-1.608-1.364
		c-0.387-0.497-0.652-1.028-0.797-1.596c-0.146-0.566-0.219-1.171-0.219-1.813c0-1.283,0.2-2.435,0.6-3.454
		c0.4-1.02,0.943-1.885,1.629-2.598c0.686-0.711,1.487-1.259,2.406-1.641c0.918-0.383,1.896-0.574,2.934-0.574
		c0.791,0,1.526,0.056,2.207,0.165c0.682,0.11,1.321,0.288,1.919,0.534s1.169,0.569,1.714,0.969c0.545,0.4,1.081,0.891,1.608,1.471
		C380.472,337.453,380.768,337.014,381.133,336.637z M379.861,345.943v-3.941c-0.186-0.176-0.402-0.348-0.652-0.514
		c-0.252-0.168-0.525-0.316-0.824-0.449c-0.299-0.131-0.623-0.236-0.969-0.316c-0.348-0.078-0.719-0.118-1.115-0.118
		c-0.377,0-0.716,0.068-1.015,0.204c-0.299,0.137-0.554,0.325-0.765,0.567c-0.211,0.241-0.371,0.529-0.48,0.863
		c-0.111,0.334-0.166,0.703-0.166,1.107c0,0.255,0.02,0.483,0.061,0.686c0.039,0.202,0.125,0.387,0.256,0.554
		c0.133,0.167,0.328,0.316,0.588,0.448c0.258,0.132,0.609,0.251,1.055,0.356c0.443,0.105,0.992,0.204,1.646,0.296
		C378.136,345.779,378.93,345.865,379.861,345.943z"/>
	<path fill="#E9EEC5" d="M421.012,335.582v39.576l-9.188-0.54V361.17c-0.729,0.246-1.446,0.416-2.149,0.508
		c-0.703,0.093-1.463,0.139-2.28,0.139c-1.863,0-3.549-0.327-5.056-0.981c-1.508-0.655-2.795-1.598-3.863-2.828
		s-1.89-2.729-2.465-4.495c-0.576-1.768-0.863-3.767-0.863-5.999c0-1.635,0.107-3.085,0.322-4.351s0.527-2.366,0.936-3.303
		c0.41-0.936,0.91-1.723,1.504-2.359c0.594-0.638,1.264-1.151,2.01-1.543c0.748-0.391,1.566-0.67,2.459-0.837
		s1.848-0.251,2.867-0.251c1.318,0,2.543,0.277,3.672,0.831s2.209,1.306,3.236,2.255c0-0.221,0.014-0.467,0.04-0.738
		c0.026-0.273,0.06-0.548,0.099-0.824c0.039-0.277,0.086-0.55,0.139-0.817c0.053-0.269,0.105-0.503,0.158-0.706L421.012,335.582z
		 M411.771,342.542c-0.492-0.299-1.013-0.519-1.562-0.659c-0.551-0.141-1.11-0.211-1.682-0.211c-0.554,0-1.079,0.079-1.576,0.237
		c-0.496,0.158-0.932,0.473-1.305,0.941c-0.373,0.47-0.67,1.133-0.89,1.989s-0.329,1.978-0.329,3.365s0.115,2.54,0.35,3.457
		c0.232,0.918,0.542,1.648,0.929,2.193c0.387,0.544,0.835,0.926,1.345,1.146s1.041,0.329,1.596,0.329
		c0.299,0,0.577-0.011,0.836-0.032c0.26-0.022,0.516-0.056,0.766-0.099c0.25-0.044,0.498-0.1,0.744-0.165
		c0.246-0.066,0.506-0.147,0.778-0.243V342.542z"/>
	<path fill="#E9EEC5" d="M436.877,335.252v26.301l-9.07-0.435v-25.866H436.877z M436.666,365.442v7.673h-8.754v-7.673H436.666z"/>
	<path fill="#E9EEC5" d="M467.666,335.252v19.169c0,1.292-0.13,2.417-0.389,3.375c-0.26,0.958-0.67,1.751-1.232,2.38
		c-0.563,0.628-1.285,1.096-2.17,1.404c-0.883,0.307-1.943,0.461-3.184,0.461c-0.641,0-1.318-0.097-2.029-0.29
		c-0.713-0.193-1.424-0.459-2.137-0.798c-0.711-0.338-1.414-0.742-2.109-1.213c-0.693-0.47-1.354-0.982-1.977-1.535
		c-0.053,0.307-0.108,0.628-0.166,0.962c-0.057,0.334-0.115,0.659-0.178,0.976c-0.061,0.316-0.127,0.615-0.197,0.896
		s-0.145,0.522-0.225,0.725l-8.094-0.435v-26.077h9.176v16.901c0.766,0.65,1.5,1.173,2.199,1.569
		c0.701,0.395,1.342,0.593,1.923,0.593c0.3,0,0.548-0.031,0.747-0.093c0.197-0.062,0.356-0.162,0.476-0.303
		c0.118-0.141,0.204-0.327,0.258-0.561c0.053-0.232,0.079-0.525,0.079-0.877v-17.23H467.666z"/>
	<path fill="#E9EEC5" d="M501.619,365.548c-0.677,0.22-1.38,0.382-2.109,0.487s-1.445,0.158-2.148,0.158
		c-0.738,0-1.379-0.088-1.918-0.264c-0.541-0.176-1.012-0.48-1.412-0.916c-0.399-0.435-0.75-1.02-1.055-1.753
		c-0.303-0.734-0.59-1.664-0.863-2.788c-0.887,0.43-1.846,0.771-2.873,1.021c-1.029,0.25-2.193,0.375-3.494,0.375
		c-1.863,0-3.577-0.232-5.142-0.698s-2.913-1.145-4.048-2.037c-1.133-0.892-2.02-1.981-2.656-3.27
		c-0.637-1.287-0.955-2.758-0.955-4.409c0-1.091,0.168-2.077,0.508-2.96c0.338-0.884,0.799-1.655,1.383-2.313
		c0.585-0.66,1.275-1.205,2.07-1.635c0.795-0.432,1.654-0.738,2.578-0.924c-0.555-0.729-1.007-1.359-1.358-1.892
		c-0.352-0.531-0.626-1.013-0.823-1.443c-0.199-0.431-0.335-0.828-0.41-1.193c-0.074-0.364-0.111-0.745-0.111-1.14
		c0-0.414,0.041-0.752,0.125-1.016s0.205-0.501,0.363-0.712c-1.064-0.703-1.954-1.358-2.67-1.964
		c-0.717-0.607-1.288-1.193-1.715-1.761c-0.426-0.566-0.729-1.129-0.908-1.688c-0.182-0.558-0.271-1.131-0.271-1.72
		c0-1.055,0.258-1.976,0.771-2.763c0.514-0.786,1.277-1.443,2.287-1.971c1.012-0.527,2.264-0.923,3.758-1.187
		s3.221-0.396,5.182-0.396c1.625,0,3.137,0.141,4.535,0.422c1.396,0.281,2.667,0.67,3.81,1.167c1.143,0.496,2.155,1.085,3.038,1.767
		c0.885,0.681,1.625,1.422,2.223,2.222s1.052,1.644,1.363,2.531c0.313,0.888,0.469,1.784,0.469,2.689
		c0,1.283-0.176,2.363-0.527,3.242s-0.879,1.591-1.582,2.137c-0.703,0.544-1.58,0.936-2.631,1.173
		c-1.05,0.237-2.277,0.356-3.684,0.356h-5.182c-0.22,0-0.4,0.015-0.541,0.046c-0.141,0.03-0.25,0.081-0.329,0.151
		s-0.134,0.165-0.165,0.283c-0.031,0.119-0.046,0.266-0.046,0.441c0,0.105,0.009,0.231,0.026,0.376
		c0.018,0.146,0.041,0.29,0.072,0.436c0.031,0.145,0.066,0.283,0.105,0.415s0.077,0.246,0.112,0.343
		c1.143,0,2.257,0.079,3.343,0.237c1.084,0.158,2.109,0.397,3.07,0.719c0.963,0.32,1.844,0.731,2.645,1.232
		c0.799,0.501,1.489,1.092,2.069,1.773c0.58,0.681,1.03,1.459,1.351,2.333c0.321,0.875,0.482,1.853,0.482,2.934
		c0,0.396-0.035,0.802-0.105,1.22c-0.07,0.417-0.166,0.828-0.283,1.232c-0.119,0.404-0.262,0.791-0.43,1.16
		c-0.166,0.369-0.342,0.694-0.527,0.976c0.168,0.439,0.348,0.758,0.541,0.956c0.193,0.197,0.483,0.297,0.87,0.297
		c0.404,0,0.858-0.019,1.364-0.053c0.506-0.036,1.109-0.093,1.813-0.172L501.619,365.548z M490.789,331.158
		c-0.242-0.355-0.615-0.683-1.121-0.982c-0.506-0.298-1.145-0.544-1.918-0.738c-0.773-0.192-1.691-0.289-2.756-0.289
		c-0.975,0-1.797,0.065-2.465,0.197s-1.209,0.314-1.621,0.547c-0.414,0.233-0.711,0.504-0.891,0.811
		c-0.18,0.309-0.27,0.638-0.27,0.989c0,0.325,0.061,0.673,0.184,1.042s0.281,0.703,0.475,1.002h9.018
		c0.334,0,0.613-0.044,0.838-0.133c0.225-0.087,0.402-0.204,0.533-0.349c0.133-0.146,0.225-0.31,0.277-0.495
		c0.053-0.184,0.079-0.377,0.079-0.58C491.151,331.855,491.03,331.515,490.789,331.158z M488.693,350.439
		c-0.199-0.466-0.465-0.844-0.799-1.134s-0.727-0.499-1.18-0.626c-0.453-0.128-0.938-0.191-1.457-0.191
		c-0.553,0-1.047,0.066-1.482,0.197c-0.436,0.133-0.803,0.337-1.102,0.613c-0.299,0.277-0.527,0.635-0.686,1.074
		s-0.236,0.963-0.236,1.569c0,1.187,0.299,2.103,0.896,2.749c0.598,0.646,1.56,0.969,2.887,0.969c1.169,0,2.037-0.299,2.604-0.896
		s0.851-1.468,0.851-2.61C488.989,351.477,488.891,350.905,488.693,350.439z"/>
</g>
<polyline fill="none" stroke="#E9EEC5" stroke-width="3" stroke-linecap="round" stroke-linejoin="round" stroke-miterlimit="10" points="
	252.807,232.558 240.94,244.603 234.114,166.026 "/>
</svg>
