<?xml version="1.0" encoding="utf-8"?>
<!-- Generator: Adobe Illustrator 15.1.0, SVG Export Plug-In . SVG Version: 6.00 Build 0)  -->
<!DOCTYPE svg PUBLIC "-//W3C//DTD SVG 1.1//EN" "http://www.w3.org/Graphics/SVG/1.1/DTD/svg11.dtd">
<svg version="1.1" id="Ebene_1" xmlns="http://www.w3.org/2000/svg" xmlns:xlink="http://www.w3.org/1999/xlink" x="0px" y="0px"
	 width="50px" height="50px" viewBox="0 0 50 50" enable-background="new 0 0 50 50" xml:space="preserve">
<g>
	<polygon fill="#FFFFFF" points="23,21.786 17.981,13.343 15.194,18.262 22.386,22.952 	"/>
	<polygon fill="#FFFFFF" points="27.613,22.953 34.805,18.262 32.018,13.345 27,21.787 	"/>
	<polygon fill="#FFFFFF" points="24.75,21.5 24.5,13 18.938,13 23.412,21.5 	"/>
	<polygon fill="#FFFFFF" points="28.429,24.5 38.058,24 35.298,19.132 27.847,23.396 	"/>
	<polygon fill="#FFFFFF" points="26.588,21.5 31.063,13 25.5,13 25.25,21.5 	"/>
	<polygon fill="#FFFFFF" points="22.185,26.664 14.768,30.985 17.695,36.152 22.862,27.953 	"/>
	<polygon fill="#FFFFFF" points="28.691,25 28.049,26.222 35.725,30.115 38.624,25 	"/>
	<polygon fill="#FFFFFF" points="23.151,28.5 23.138,28.476 18.36,37 24.5,37 24.75,28.5 	"/>
	<polygon fill="#FFFFFF" points="26.849,28.5 25.25,28.5 25.5,37 31.64,37 26.861,28.475 	"/>
	<polygon fill="#FFFFFF" points="22.153,23.395 14.701,19.132 11.942,24 21.571,24.5 	"/>
	<polygon fill="#FFFFFF" points="21.308,25 11.376,25 14.274,30.115 21.951,26.222 	"/>
	<polygon fill="#FFFFFF" points="27.137,27.952 32.304,36.15 35.232,30.984 27.815,26.664 	"/>
</g>
</svg>
